<?xml version="1.0" encoding="utf-8"?>
<!-- Generator: Adobe Illustrator 19.1.0, SVG Export Plug-In . SVG Version: 6.00 Build 0)  -->
<svg version="1.1" id="Layer_1" xmlns="http://www.w3.org/2000/svg" xmlns:xlink="http://www.w3.org/1999/xlink" x="0px" y="0px"
	 viewBox="0 0 60.4 31.9" style="enable-background:new 0 0 60.4 31.9;" xml:space="preserve">
<style type="text/css">
	.st0{clip-path:url(#SVGID_2_);fill:#007793;}
	.st1{clip-path:url(#SVGID_4_);fill:#007789;}
	.st2{clip-path:url(#SVGID_6_);fill:#007789;}
</style>
<g>
	<g>
		<defs>
			<rect id="SVGID_1_" width="60.4" height="31.1"/>
		</defs>
		<clipPath id="SVGID_2_">
			<use xlink:href="#SVGID_1_"  style="overflow:visible;"/>
		</clipPath>
		<path class="st0" d="M41.9,23.1l-7.1,6.9H38l3.9-3.8V23.1z M41.9,18.3l-12,11.8h3.2l8.8-8.6V18.3z M41.9,13.5l-17,16.6h3.2
			l13.7-13.4V13.5z M41.9,8.7L20,30.1h3.2l18.7-18.3V8.7z M41.9,3.9L15.1,30.1h3.2L41.9,7V3.9z M8.5,7.6L1,14.9v3.2L11.7,7.6H8.5z
			 M6.8,7.6H4.2V6.9L1,10.1v3.2L6.8,7.6z M1,3.6L3.6,1H3C1.9,1,1,1.9,1,3V3.6z M5.6,3.9L8.6,1H5.3L1,5.2v3.2l3.2-3.1V3.9H5.6z
			 M10.6,3.9L13.5,1h-3.2L7.3,3.9H10.6z M12.6,6.7L18.4,1h-3.2l-2.9,2.9h0.3V6.7z M1,22.9L23.4,1h-3.2L1,19.7V22.9z M1,27.7L28.3,1
			h-3.2L1,24.5V27.7z M3.5,30.1L33.2,1H30L1.3,29.1c0.3,0.6,1,1,1.7,1H3.5z M8.4,30.1L38.2,1h-3.2L5.2,30.1H8.4z M59.4,17.9v-4.7
			c0-0.8-0.7-1.4-1.5-1.4h-1.4V3c0-1.1-0.9-2-2-2H39.9L10.1,30.1h3.3L41.9,2.2V2.1h12.7c0.5,0,0.8,0.4,0.8,0.8v25.1
			c0,0.5-0.4,0.8-0.8,0.8H41.9v-1l-2.2,2.1h14.8c1.1,0,2-0.9,2-2v-8.8H58C58.8,19.3,59.4,18.7,59.4,17.9"/>
	</g>
</g>
<g>
	<g>
		<defs>
			<rect id="SVGID_3_" x="48.1" y="2.7" width="7.1" height="7.3"/>
		</defs>
		<clipPath id="SVGID_4_">
			<use xlink:href="#SVGID_3_"  style="overflow:visible;"/>
		</clipPath>
		<polygon class="st1" points="52.1,3.7 52.1,5.9 54.2,5.9 54.2,6.8 52.1,6.8 52.1,9 51.1,9 51.1,6.8 49.1,6.8 49.1,5.9 51.1,5.9 
			51.1,3.7 		"/>
	</g>
</g>
<g>
	<g>
		<defs>
			<rect id="SVGID_5_" x="4.8" y="3.9" width="7.1" height="3.6"/>
		</defs>
		<clipPath id="SVGID_6_">
			<use xlink:href="#SVGID_5_"  style="overflow:visible;"/>
		</clipPath>
		<polygon class="st2" points="10.9,4.9 10.5,4.9 6.3,4.9 5.8,4.9 5.8,5.4 5.8,6 5.8,6.5 6.3,6.5 10.5,6.5 10.9,6.5 10.9,6 
			10.9,5.4 		"/>
	</g>
</g>
</svg>
