<?xml version="1.0" encoding="utf-8"?>
<!-- Generator: Adobe Illustrator 19.1.0, SVG Export Plug-In . SVG Version: 6.00 Build 0)  -->
<!DOCTYPE svg PUBLIC "-//W3C//DTD SVG 1.1//EN" "http://www.w3.org/Graphics/SVG/1.1/DTD/svg11.dtd">
<svg version="1.1" id="Layer_1" xmlns="http://www.w3.org/2000/svg" xmlns:xlink="http://www.w3.org/1999/xlink" x="0px" y="0px"
	 viewBox="-253 367.5 60.4 31.9" style="enable-background:new -253 367.5 60.4 31.9;" xml:space="preserve">
<metadata><?xpacket begin="﻿" id="W5M0MpCehiHzreSzNTczkc9d"?>
<x:xmpmeta xmlns:x="adobe:ns:meta/" x:xmptk="Adobe XMP Core 5.6-c067 79.157747, 2015/03/30-23:40:42        ">
   <rdf:RDF xmlns:rdf="http://www.w3.org/1999/02/22-rdf-syntax-ns#">
      <rdf:Description rdf:about=""/>
   </rdf:RDF>
</x:xmpmeta>
                                                                                                    
                                                                                                    
                                                                                                    
                                                                                                    
                                                                                                    
                                                                                                    
                                                                                                    
                                                                                                    
                                                                                                    
                                                                                                    
                                                                                                    
                                                                                                    
                                                                                                    
                                                                                                    
                                                                                                    
                                                                                                    
                                                                                                    
                                                                                                    
                                                                                                    
                                                                                                    
                           
<?xpacket end="w"?></metadata>
<style type="text/css">
	.st0{opacity:0.5;fill:#44793C;}
	.st1{fill:#44793C;}
</style>
<path class="st0" d="M-192.5,384.1c0,2.3-1.8,4.1-4.1,4.1c-0.4,0-0.8-0.1-1.2-0.2c-0.8,0.9-2,1.5-3.4,1.5c-1.3,0-2.5-0.5-3.3-1.4
	c-0.5,0.6-1.3,1-2.2,1c-1.2,0-2.2-0.7-2.6-1.6c-0.4,0.2-0.9,0.3-1.4,0.3c-1.9,0-3.5-1.6-3.5-3.5c0-1.2,0.6-2.2,1.5-2.8
	c-0.2-0.6-0.3-1.2-0.3-1.8c0-2.7,2.1-4.8,4.8-4.8c1,0,1.9,0.3,2.7,0.8c0.9-0.8,2-1.4,3.3-1.4c1.9,0,3.5,1.1,4.3,2.7
	c0.3-0.1,0.5-0.1,0.8-0.1c1.9,0,3.5,1.6,3.5,3.5c0,0.3,0,0.5-0.1,0.8C-193,381.8-192.5,382.9-192.5,384.1"/>
<path class="st0" d="M-233.9,375.1c0,1.4-1.1,2.5-2.5,2.5c-0.3,0-0.5,0-0.8-0.1c-0.5,0.5-1.2,0.9-2,0.9c-0.8,0-1.5-0.3-2-0.9
	c-0.3,0.4-0.8,0.6-1.3,0.6c-0.7,0-1.3-0.4-1.6-1c-0.3,0.1-0.6,0.2-0.9,0.2c-1.2,0-2.1-0.9-2.1-2.1c0-0.7,0.4-1.4,0.9-1.7
	c-0.1-0.3-0.2-0.7-0.2-1.1c0-1.6,1.3-2.9,2.9-2.9c0.6,0,1.2,0.2,1.7,0.5c0.5-0.5,1.2-0.8,2-0.8c1.2,0,2.1,0.7,2.6,1.6
	c0.2,0,0.3-0.1,0.5-0.1c1.2,0,2.1,0.9,2.1,2.1c0,0.2,0,0.3-0.1,0.5C-234.2,373.8-233.9,374.4-233.9,375.1"/>
<path class="st0" d="M-243.9,383.9c0,0.7-0.6,1.3-1.3,1.3c-0.1,0-0.3,0-0.4-0.1c-0.3,0.3-0.6,0.5-1.1,0.5c-0.4,0-0.8-0.2-1-0.4
	c-0.2,0.2-0.4,0.3-0.7,0.3c-0.4,0-0.7-0.2-0.8-0.5c-0.1,0.1-0.3,0.1-0.4,0.1c-0.6,0-1.1-0.5-1.1-1.1c0-0.4,0.2-0.7,0.5-0.9
	c-0.1-0.2-0.1-0.4-0.1-0.6c0-0.8,0.7-1.5,1.5-1.5c0.3,0,0.6,0.1,0.9,0.3c0.3-0.3,0.6-0.4,1.1-0.4c0.6,0,1.1,0.3,1.4,0.8
	c0.1,0,0.2,0,0.2,0c0.6,0,1.1,0.5,1.1,1.1c0,0.1,0,0.2,0,0.2C-244.1,383.2-243.9,383.6-243.9,383.9"/>
<path class="st1" d="M-227.5,391c-0.6,0-1.1,0.5-1.1,1.1c0,0.6,0.5,1.1,1.1,1.1c0.6,0,1.1-0.5,1.1-1.1
	C-226.4,391.4-226.9,391-227.5,391"/>
<path class="st1" d="M-227.5,394.2c-0.5,0-0.8,0.4-0.8,0.8c0,0.5,0.4,0.8,0.8,0.8c0.5,0,0.8-0.4,0.8-0.8
	C-226.7,394.6-227.1,394.2-227.5,394.2"/>
<path class="st1" d="M-227.5,397.3c-0.3,0-0.6,0.3-0.6,0.6c0,0.3,0.3,0.6,0.6,0.6c0.3,0,0.6-0.3,0.6-0.6
	C-226.9,397.6-227.2,397.3-227.5,397.3"/>
<path class="st1" d="M-222.8,390.8c-0.6,0-1.1,0.5-1.1,1.1c0,0.6,0.5,1.1,1.1,1.1c0.6,0,1.1-0.5,1.1-1.1
	C-221.7,391.3-222.2,390.8-222.8,390.8"/>
<path class="st1" d="M-222.8,394c-0.5,0-0.8,0.4-0.8,0.8c0,0.5,0.4,0.8,0.8,0.8c0.5,0,0.8-0.4,0.8-0.8
	C-222,394.4-222.3,394-222.8,394"/>
<path class="st1" d="M-222.8,397.1c-0.3,0-0.6,0.3-0.6,0.6c0,0.3,0.3,0.6,0.6,0.6c0.3,0,0.6-0.3,0.6-0.6
	C-222.2,397.4-222.5,397.1-222.8,397.1"/>
<path class="st1" d="M-218.1,391.8c-0.6,0-1.1,0.5-1.1,1.1s0.5,1.1,1.1,1.1c0.6,0,1.1-0.5,1.1-1.1S-217.5,391.8-218.1,391.8"/>
<path class="st1" d="M-218.1,395c-0.5,0-0.8,0.4-0.8,0.8c0,0.5,0.4,0.8,0.8,0.8s0.8-0.4,0.8-0.8C-217.3,395.4-217.6,395-218.1,395"
	/>
<path class="st1" d="M-218.1,398.1c-0.3,0-0.6,0.3-0.6,0.6c0,0.3,0.3,0.6,0.6,0.6c0.3,0,0.6-0.3,0.6-0.6
	C-217.5,398.4-217.7,398.1-218.1,398.1"/>
<path class="st1" d="M-216.7,380.8c0.4,0,0.6,0.2,0.6,1c0,0.9-0.5,1.3-0.9,1.7c-0.6,0.6-0.8,1.1-0.8,2.2v1.1h2.6v-0.9h-1.7v-0.4
	c0-0.7,0.1-1,0.6-1.5c0.7-0.7,1.2-1,1.2-2.4c0-1.3-0.6-1.7-1.4-1.7c-0.8,0-1.2,0.3-1.4,0.7l0.6,0.5
	C-217.3,380.9-217.1,380.8-216.7,380.8 M-220.7,381.2c0,1.3,0,2.2-1,2.2c-1.1,0-1.1-1-1.1-2.2v-4.8c0-1.3,0-2.3,1.1-2.3
	c1,0,1,1,1,2.2V381.2z M-219,376.6c0-1.7,0-4-2.8-4c-2.8,0-2.8,2.2-2.8,4v4.5c0,1.8,0,4,2.8,4c2.8,0,2.8-2.3,2.8-4V376.6z
	 M-228.7,375.9c0-1.3,0.3-1.7,1.1-1.7c0.6,0,0.9,0.3,1.1,0.6l1.1-1.1c-0.5-0.6-1.1-1.1-2.3-1.1c-2.4,0-2.7,1.6-2.7,3.7v5.1
	c0,2.1,0.4,3.7,2.8,3.7c1.2,0,2-0.6,2.3-1l-1-1.2c-0.2,0.2-0.6,0.6-1.3,0.6c-0.8,0-1.1-0.6-1.1-1.7V375.9z M-206,382.6
	c0,3.5-2.8,6.4-6.4,6.4c-0.7,0-1.3-0.1-1.9-0.3c-1.3,1.4-3.1,2.2-5.2,2.2c-2,0-3.8-0.8-5.1-2.2c-0.8,0.9-2.1,1.5-3.4,1.5
	c-1.8,0-3.3-1-4.1-2.5c-0.7,0.3-1.4,0.5-2.2,0.5c-3,0-5.4-2.4-5.4-5.4c0-1.8,0.9-3.4,2.3-4.4c-0.3-0.9-0.5-1.8-0.5-2.8
	c0-4.1,3.3-7.4,7.4-7.4c1.6,0,3,0.5,4.2,1.3c1.3-1.3,3.2-2.1,5.2-2.1c2.9,0,5.4,1.7,6.7,4.1c0.4-0.1,0.8-0.1,1.2-0.1
	c3,0,5.4,2.4,5.4,5.4c0,0.4,0,0.8-0.1,1.2C-206.7,379.2-206,380.8-206,382.6"/>
</svg>
