<?xml version="1.0" encoding="utf-8"?>
<!-- Generator: Adobe Illustrator 18.1.1, SVG Export Plug-In . SVG Version: 6.00 Build 0)  -->
<!DOCTYPE svg PUBLIC "-//W3C//DTD SVG 1.1//EN" "http://www.w3.org/Graphics/SVG/1.1/DTD/svg11.dtd">
<svg version="1.1" id="Layer_1" xmlns="http://www.w3.org/2000/svg" xmlns:xlink="http://www.w3.org/1999/xlink" x="0px" y="0px"
	 viewBox="0 0 214.6 67" enable-background="new 0 0 214.6 67" xml:space="preserve">
<g>
	<g>
		<defs>
			<rect id="SVGID_1_" x="0" y="24" width="76.3" height="42.9"/>
		</defs>
		<clipPath id="SVGID_2_">
			<use xlink:href="#SVGID_1_"  overflow="visible"/>
		</clipPath>
		<path clip-path="url(#SVGID_2_)" fill="none" stroke="#000000" stroke-width="2" stroke-dasharray="3.06,3.06" d="M5.6,34.4
			c11.9,0.2,43.1,2.2,46.4,19.1"/>
		<path clip-path="url(#SVGID_2_)" fill="none" stroke="#000000" stroke-width="2" stroke-dasharray="2.954,2.954" d="M51.3,60.8
			c-2.8,5.2-10.5,6.1-12.6-0.2"/>
		<path clip-path="url(#SVGID_2_)" fill="none" stroke="#000000" stroke-width="2" stroke-dasharray="2.903,2.903" d="M38.7,53.3
			c3-10.6,17.3-24.2,33.6-26.9"/>
		<path clip-path="url(#SVGID_2_)" fill="none" stroke="#000000" stroke-width="2" d="M73.8,26.2c0.5-0.1,1-0.1,1.4-0.2 M38.3,59.1
			c-0.1-0.5-0.1-0.9-0.2-1.5c0-0.5,0-1,0-1.5 M52.3,55c0,0.5,0.1,1,0.1,1.5c0,0.5,0,1-0.1,1.5 M1,34.4c0,0,0.5,0,1.5,0"/>
	</g>
</g>
<g>
	<g>
		<defs>
			<rect id="SVGID_3_" x="110.2" y="7.4" width="104.3" height="22.6"/>
		</defs>
		<clipPath id="SVGID_4_">
			<use xlink:href="#SVGID_3_"  overflow="visible"/>
		</clipPath>
		<path clip-path="url(#SVGID_4_)" fill="none" stroke="#000000" stroke-width="2" stroke-dasharray="3.013,3.013" d="M111.3,27.9
			c40.5,2.4,44.5-28.7,102-14.9"/>
	</g>
</g>
<g>
	<g>
		<defs>
			<rect id="SVGID_5_" x="122.6" width="22.5" height="22.5"/>
		</defs>
		<clipPath id="SVGID_6_">
			<use xlink:href="#SVGID_5_"  overflow="visible"/>
		</clipPath>
		<path clip-path="url(#SVGID_6_)" fill="#CAE2E2" d="M135,19.2c4.4-0.6,7.4-4.6,6.8-9c-0.6-4.4-4.6-7.4-9-6.8
			c-4.4,0.6-7.4,4.6-6.8,9C126.6,16.7,130.6,19.8,135,19.2"/>
		<circle clip-path="url(#SVGID_6_)" fill="none" stroke="#000000" stroke-width="2" cx="133.9" cy="11.3" r="8"/>
	</g>
</g>
<path d="M134.2,14.8c-0.1,0-0.3,0-0.4,0c-0.2,0-0.3-0.1-0.5-0.1c-0.2-0.1-0.3-0.1-0.5-0.2c-0.2-0.1-0.3-0.2-0.4-0.4l-0.6,0.5
	c0.3,0.3,0.7,0.5,1.1,0.7c0.4,0.2,0.9,0.2,1.4,0.2l0.1,0.8l0.5-0.1l-0.1-0.8c0.3-0.1,0.6-0.1,0.9-0.3c0.3-0.1,0.5-0.3,0.7-0.5
	s0.3-0.5,0.4-0.7c0.1-0.3,0.1-0.6,0.1-0.9c-0.1-0.4-0.2-0.7-0.3-0.9c-0.2-0.2-0.4-0.4-0.6-0.6c-0.2-0.2-0.5-0.3-0.8-0.4
	c-0.3-0.1-0.6-0.2-0.9-0.2l-0.4-3.1c0.3,0,0.5,0,0.8,0.1c0.3,0.1,0.5,0.2,0.7,0.5l0.5-0.6c-0.1-0.1-0.3-0.2-0.5-0.3
	c-0.2-0.1-0.4-0.2-0.6-0.2c-0.2,0-0.4-0.1-0.6-0.1c-0.2,0-0.4,0-0.6,0l-0.1-0.8L133,6.4l0.1,0.8c-0.3,0.1-0.6,0.2-0.8,0.3
	c-0.2,0.1-0.5,0.3-0.6,0.5c-0.2,0.2-0.3,0.5-0.4,0.7c-0.1,0.3-0.1,0.6-0.1,0.9c0,0.3,0.2,0.6,0.3,0.8c0.2,0.2,0.4,0.4,0.6,0.5
	c0.2,0.1,0.5,0.3,0.8,0.3c0.3,0.1,0.5,0.1,0.8,0.2L134.2,14.8z M134.3,11.6c0.4,0.1,0.8,0.2,1.1,0.4c0.3,0.2,0.5,0.5,0.5,0.9
	c0,0.3,0,0.5,0,0.7c-0.1,0.2-0.2,0.4-0.3,0.5c-0.1,0.1-0.3,0.2-0.4,0.3c-0.2,0.1-0.3,0.1-0.5,0.2L134.3,11.6z M133.6,10.7
	c-0.4-0.1-0.8-0.2-1.1-0.4c-0.3-0.2-0.5-0.5-0.5-0.9c-0.1-0.4,0-0.8,0.3-1.1c0.2-0.3,0.5-0.5,0.9-0.5L133.6,10.7z"/>
<path fill="none" stroke="#000000" stroke-width="0.25" d="M134.2,14.8c-0.1,0-0.3,0-0.4,0c-0.2,0-0.3-0.1-0.5-0.1
	c-0.2-0.1-0.3-0.1-0.5-0.2c-0.2-0.1-0.3-0.2-0.4-0.4l-0.6,0.5c0.3,0.3,0.7,0.5,1.1,0.7c0.4,0.2,0.9,0.2,1.4,0.2l0.1,0.8l0.5-0.1
	l-0.1-0.8c0.3-0.1,0.6-0.1,0.9-0.3c0.3-0.1,0.5-0.3,0.7-0.5s0.3-0.5,0.4-0.7c0.1-0.3,0.1-0.6,0.1-0.9c-0.1-0.4-0.2-0.7-0.3-0.9
	c-0.2-0.2-0.4-0.4-0.6-0.6c-0.2-0.2-0.5-0.3-0.8-0.4c-0.3-0.1-0.6-0.2-0.9-0.2l-0.4-3.1c0.3,0,0.5,0,0.8,0.1
	c0.3,0.1,0.5,0.2,0.7,0.5l0.5-0.6c-0.1-0.1-0.3-0.2-0.5-0.3c-0.2-0.1-0.4-0.2-0.6-0.2c-0.2,0-0.4-0.1-0.6-0.1c-0.2,0-0.4,0-0.6,0
	l-0.1-0.8L133,6.4l0.1,0.8c-0.3,0.1-0.6,0.2-0.8,0.3c-0.2,0.1-0.5,0.3-0.6,0.5c-0.2,0.2-0.3,0.5-0.4,0.7c-0.1,0.3-0.1,0.6-0.1,0.9
	c0,0.3,0.2,0.6,0.3,0.8c0.2,0.2,0.4,0.4,0.6,0.5c0.2,0.1,0.5,0.3,0.8,0.3c0.3,0.1,0.5,0.1,0.8,0.2L134.2,14.8z M134.3,11.6
	c0.4,0.1,0.8,0.2,1.1,0.4c0.3,0.2,0.5,0.5,0.5,0.9c0,0.3,0,0.5,0,0.7c-0.1,0.2-0.2,0.4-0.3,0.5c-0.1,0.1-0.3,0.2-0.4,0.3
	c-0.2,0.1-0.3,0.1-0.5,0.2L134.3,11.6z M133.6,10.7c-0.4-0.1-0.8-0.2-1.1-0.4c-0.3-0.2-0.5-0.5-0.5-0.9c-0.1-0.4,0-0.8,0.3-1.1
	c0.2-0.3,0.5-0.5,0.9-0.5L133.6,10.7z"/>
<g>
	<g>
		<defs>
			<rect id="SVGID_7_" x="70.9" y="1.4" width="45.7" height="45.7"/>
		</defs>
		<clipPath id="SVGID_8_">
			<use xlink:href="#SVGID_7_"  overflow="visible"/>
		</clipPath>
		<path clip-path="url(#SVGID_8_)" fill="#CAE2E2" d="M96.2,41.7c9.7-1.4,16.4-10.3,15-20c-1.4-9.7-10.3-16.4-20-15
			c-9.7,1.4-16.4,10.3-15,20C77.6,36.3,86.6,43.1,96.2,41.7"/>
		<circle clip-path="url(#SVGID_8_)" fill="none" stroke="#000000" stroke-width="3.153" cx="93.8" cy="24.2" r="17.7"/>
	</g>
</g>
<path d="M94.4,32c-0.3,0-0.6,0-0.9,0c-0.4,0-0.7-0.1-1.1-0.3c-0.4-0.1-0.8-0.3-1.1-0.5c-0.4-0.2-0.7-0.5-1-0.9L89,31.5
	c0.7,0.7,1.5,1.2,2.5,1.5c0.9,0.4,2,0.5,3.1,0.3l0.3,1.8l1.2-0.2l-0.2-1.8c0.7-0.1,1.4-0.3,1.9-0.6c0.6-0.3,1.1-0.7,1.5-1.2
	c0.4-0.5,0.7-1,0.9-1.6c0.2-0.6,0.2-1.3,0.1-1.9c-0.1-0.8-0.4-1.5-0.7-2c-0.4-0.5-0.8-0.9-1.3-1.3c-0.5-0.3-1.1-0.6-1.8-0.8
	c-0.6-0.2-1.3-0.3-1.9-0.5l-1-6.8c0.6-0.1,1.2,0,1.8,0.2c0.6,0.2,1.2,0.5,1.6,1l1.2-1.2c-0.3-0.3-0.7-0.5-1.1-0.7
	c-0.4-0.2-0.8-0.3-1.2-0.5s-0.9-0.2-1.3-0.2c-0.4,0-0.8,0-1.2,0L93,13.4l-1.2,0.2l0.3,1.8c-0.6,0.1-1.2,0.3-1.8,0.6
	c-0.5,0.3-1,0.7-1.4,1.2c-0.4,0.5-0.7,1-0.8,1.6c-0.2,0.6-0.2,1.3-0.1,2c0.1,0.8,0.3,1.4,0.7,1.9c0.4,0.5,0.8,0.9,1.3,1.2
	c0.5,0.3,1.1,0.6,1.7,0.7c0.6,0.2,1.2,0.3,1.8,0.4L94.4,32z M94.6,25c1,0.2,1.8,0.5,2.5,1c0.7,0.5,1.1,1.2,1.2,2
	c0.1,0.6,0.1,1.1-0.1,1.6c-0.1,0.4-0.3,0.8-0.6,1.1c-0.3,0.3-0.6,0.6-1,0.7c-0.4,0.2-0.7,0.3-1.1,0.4L94.6,25z M93.1,23.1
	c-1-0.1-1.8-0.4-2.4-0.8c-0.6-0.4-1-1.1-1.1-2c-0.1-0.9,0.1-1.7,0.6-2.4c0.5-0.7,1.2-1.1,2.1-1.2L93.1,23.1z"/>
<g>
	<g>
		<defs>
			<rect id="SVGID_9_" x="121.8" y="29.2" width="22.5" height="22.5"/>
		</defs>
		<clipPath id="SVGID_10_">
			<use xlink:href="#SVGID_9_"  overflow="visible"/>
		</clipPath>
		<path clip-path="url(#SVGID_10_)" fill="#CAE2E2" d="M134.2,48.3c4.4-0.6,7.4-4.6,6.8-9c-0.6-4.4-4.6-7.4-9-6.8
			c-4.4,0.6-7.4,4.6-6.8,9C125.8,45.9,129.8,48.9,134.2,48.3"/>
		<circle clip-path="url(#SVGID_10_)" fill="none" stroke="#000000" stroke-width="2" cx="133.1" cy="40.4" r="8"/>
	</g>
</g>
<path d="M133.3,43.9c-0.1,0-0.3,0-0.4,0c-0.2,0-0.3-0.1-0.5-0.1c-0.2-0.1-0.3-0.1-0.5-0.2c-0.2-0.1-0.3-0.2-0.4-0.4l-0.6,0.5
	c0.3,0.3,0.7,0.5,1.1,0.7c0.4,0.2,0.9,0.2,1.4,0.2l0.1,0.8l0.5-0.1l-0.1-0.8c0.3-0.1,0.6-0.1,0.9-0.3c0.3-0.1,0.5-0.3,0.7-0.5
	s0.3-0.5,0.4-0.7c0.1-0.3,0.1-0.6,0.1-0.9c-0.1-0.4-0.2-0.7-0.3-0.9c-0.2-0.2-0.4-0.4-0.6-0.6c-0.2-0.2-0.5-0.3-0.8-0.4
	c-0.3-0.1-0.6-0.2-0.9-0.2l-0.4-3.1c0.3,0,0.5,0,0.8,0.1c0.3,0.1,0.5,0.2,0.7,0.5l0.5-0.6c-0.1-0.1-0.3-0.2-0.5-0.3
	c-0.2-0.1-0.4-0.2-0.6-0.2c-0.2,0-0.4-0.1-0.6-0.1c-0.2,0-0.4,0-0.6,0l-0.1-0.8l-0.5,0.1l0.1,0.8c-0.3,0.1-0.6,0.2-0.8,0.3
	c-0.2,0.1-0.5,0.3-0.6,0.5c-0.2,0.2-0.3,0.5-0.4,0.7c-0.1,0.3-0.1,0.6-0.1,0.9c0,0.3,0.2,0.6,0.3,0.8c0.2,0.2,0.4,0.4,0.6,0.5
	c0.2,0.1,0.5,0.3,0.8,0.3c0.3,0.1,0.5,0.1,0.8,0.2L133.3,43.9z M133.5,40.8c0.4,0.1,0.8,0.2,1.1,0.4c0.3,0.2,0.5,0.5,0.5,0.9
	c0,0.3,0,0.5,0,0.7c-0.1,0.2-0.2,0.4-0.3,0.5c-0.1,0.1-0.3,0.2-0.4,0.3c-0.2,0.1-0.3,0.1-0.5,0.2L133.5,40.8z M132.8,39.9
	c-0.4-0.1-0.8-0.2-1.1-0.4c-0.3-0.2-0.5-0.5-0.5-0.9c-0.1-0.4,0-0.8,0.3-1.1c0.2-0.3,0.5-0.5,0.9-0.5L132.8,39.9z"/>
<path fill="none" stroke="#000000" stroke-width="0.25" d="M133.3,43.9c-0.1,0-0.3,0-0.4,0c-0.2,0-0.3-0.1-0.5-0.1
	c-0.2-0.1-0.3-0.1-0.5-0.2c-0.2-0.1-0.3-0.2-0.4-0.4l-0.6,0.5c0.3,0.3,0.7,0.5,1.1,0.7c0.4,0.2,0.9,0.2,1.4,0.2l0.1,0.8l0.5-0.1
	l-0.1-0.8c0.3-0.1,0.6-0.1,0.9-0.3c0.3-0.1,0.5-0.3,0.7-0.5s0.3-0.5,0.4-0.7c0.1-0.3,0.1-0.6,0.1-0.9c-0.1-0.4-0.2-0.7-0.3-0.9
	c-0.2-0.2-0.4-0.4-0.6-0.6c-0.2-0.2-0.5-0.3-0.8-0.4c-0.3-0.1-0.6-0.2-0.9-0.2l-0.4-3.1c0.3,0,0.5,0,0.8,0.1
	c0.3,0.1,0.5,0.2,0.7,0.5l0.5-0.6c-0.1-0.1-0.3-0.2-0.5-0.3c-0.2-0.1-0.4-0.2-0.6-0.2c-0.2,0-0.4-0.1-0.6-0.1c-0.2,0-0.4,0-0.6,0
	l-0.1-0.8l-0.5,0.1l0.1,0.8c-0.3,0.1-0.6,0.2-0.8,0.3c-0.2,0.1-0.5,0.3-0.6,0.5c-0.2,0.2-0.3,0.5-0.4,0.7c-0.1,0.3-0.1,0.6-0.1,0.9
	c0,0.3,0.2,0.6,0.3,0.8c0.2,0.2,0.4,0.4,0.6,0.5c0.2,0.1,0.5,0.3,0.8,0.3c0.3,0.1,0.5,0.1,0.8,0.2L133.3,43.9z M133.5,40.8
	c0.4,0.1,0.8,0.2,1.1,0.4c0.3,0.2,0.5,0.5,0.5,0.9c0,0.3,0,0.5,0,0.7c-0.1,0.2-0.2,0.4-0.3,0.5c-0.1,0.1-0.3,0.2-0.4,0.3
	c-0.2,0.1-0.3,0.1-0.5,0.2L133.5,40.8z M132.8,39.9c-0.4-0.1-0.8-0.2-1.1-0.4c-0.3-0.2-0.5-0.5-0.5-0.9c-0.1-0.4,0-0.8,0.3-1.1
	c0.2-0.3,0.5-0.5,0.9-0.5L132.8,39.9z"/>
</svg>
