<?xml version="1.0" encoding="utf-8"?>
<!-- Generator: Adobe Illustrator 19.1.0, SVG Export Plug-In . SVG Version: 6.00 Build 0)  -->
<!DOCTYPE svg PUBLIC "-//W3C//DTD SVG 1.1//EN" "http://www.w3.org/Graphics/SVG/1.1/DTD/svg11.dtd">
<svg version="1.1" id="Layer_1" xmlns="http://www.w3.org/2000/svg" xmlns:xlink="http://www.w3.org/1999/xlink" x="0px" y="0px"
	 viewBox="-143 354.5 280.2 57.9" style="enable-background:new -143 354.5 280.2 57.9;" xml:space="preserve">
<metadata><?xpacket begin="﻿" id="W5M0MpCehiHzreSzNTczkc9d"?>
<x:xmpmeta xmlns:x="adobe:ns:meta/" x:xmptk="Adobe XMP Core 5.6-c067 79.157747, 2015/03/30-23:40:42        ">
   <rdf:RDF xmlns:rdf="http://www.w3.org/1999/02/22-rdf-syntax-ns#">
      <rdf:Description rdf:about=""/>
   </rdf:RDF>
</x:xmpmeta>
                                                                                                    
                                                                                                    
                                                                                                    
                                                                                                    
                                                                                                    
                                                                                                    
                                                                                                    
                                                                                                    
                                                                                                    
                                                                                                    
                                                                                                    
                                                                                                    
                                                                                                    
                                                                                                    
                                                                                                    
                                                                                                    
                                                                                                    
                                                                                                    
                                                                                                    
                                                                                                    
                           
<?xpacket end="w"?></metadata>
<style type="text/css">
	.st0{fill:#8CC440;}
	.st1{fill:#439032;}
	.st2{fill:#222221;}
	.st3{fill:none;stroke:#FFFFFF;stroke-width:0.1107;stroke-miterlimit:10;}
	.st4{fill:none;}
	.st5{clip-path:url(#SVGID_2_);fill:none;}
	.st6{fill:none;stroke:#FFFFFF;stroke-width:0.2312;stroke-miterlimit:10;}
	.st7{fill:#FFFFFF;}
</style>
<g>
	<g>
		<g>
			<path class="st0" d="M42.2,411.9v-5.8h-6.7v-4.3H31v-9.2h-2v-1.7h-0.3v-0.7h-0.4v-1.3h-0.2v1.3h-0.7v0.7h-2.7v1.5h-1.2v-2.9h-1
				v-0.7h-0.7v-0.2h-1.1v-0.1h-0.6v-1h-0.8v-0.3h-0.1v-0.8H19v0.8l-0.9,0.1v-0.1l-0.8-0.2l-1.1,0.2v0.5h-1.3v0.4h-0.3v-0.3h-0.2v0.3
				h-0.2H14v1.5h-0.2v0.3H14v0.3h-0.2v0.3H14v0.3h-0.2v0.3H14v0.3h-0.2v0.3H14v0.3h-0.2v0.1h-0.1v-1.5h-0.5v0l-0.5-0.6l0,0v-0.5
				h-0.6v-16.9l-0.2-0.1l0,0c0.3,0,0.5-0.2,0.5-0.6s-0.8-0.8-1.1-0.8s-0.4,0.3-0.4,0.3h0.3v0.2l-1.1,0.1l-0.3-0.2v-0.4l-2.2-1.3
				L4.8,370l-0.3,0.2c-1.2,0-1.6,0.7-1.6,0.7h0.5L3,371.1H1.7l-1,0.6c-0.2,0.1-0.4,0.2-0.4,0.3l0,0c-0.1,0.1-0.1,0.2-0.1,0.2
				c0,0.2,0.1,0.3,0.3,0.4L0,372.9c-0.2-1.2-1.1-2.2-2.3-2.4V370c0-0.2-0.1-0.3-0.3-0.3h-0.1v-1.1h-0.2v1.1H-3
				c-0.2,0-0.3,0.1-0.3,0.3v0.5c-1.2,0.2-2.2,1.3-2.4,2.6l-1.8,0.4v0.5l-1.2,0.1l-1.8,1v14.5h-0.8v0.8h-0.8v6.3h-1v-28l-0.8-0.3
				l0.5-0.1l0.3,0.1v-0.2l-2.1-0.8l-1-0.1l-1-0.5V366l-1.8-0.7c-0.4-0.5-1.1-0.8-1.9-0.8c-0.2,0-0.4,0-0.6,0.1v-0.9h-0.3v1
				c-0.4,0.1-0.7,0.3-0.9,0.6h-0.1l-0.9,0.8v1.1l-2,0.7v1.6h-0.5v0.9h-0.9v1.6l-0.3,0.2v0.6l0.3-0.2v0.5l-0.7,0.6l0.3,0.2h0.4v0.4
				h-0.8v15.9h-0.9v0.4h-0.5v0.2h-0.5v0.7l-1.4,0.4v1.8h-0.9v-2.2h-0.1v2.2H-33v-1.9h0.2v-0.3H-33v-0.1h-1.6v-0.6h0.1v-0.6h-0.1
				v-0.4h-0.2v1.5H-36v-0.6h-1.3v-3.2h-0.9v-1.2h-3.6l-1.6-1l0,0h0.2V385h-0.2v-1.6h0.2v-0.3h-0.2v-1.6h0.2v-0.3h-0.2v-1.6h0.2v-0.3
				h-0.2v-1.7h0.2v-0.3h-0.2v-1.6h0.2v-0.3h-0.2v-1.6h0.2v-0.3h-0.2v-11.4h-0.1v-2.9h-1.8V359h-0.1v-0.3c0,0-0.7-0.6-1-0.8
				c-0.1,0.1-0.3,0.1-0.4,0.2c-0.6,0.3-1.1,0.6-1.4,0.9l0,0v-0.2h-1.2v0.6h-0.8v0.8h-0.5v1.8h-0.1c-0.6,0-0.7,1.9,0.1,2v0.9
				c-0.6,0.1-0.7,0.8-0.7,1.2v26.6l-0.6,0.1v1.1h-0.7v-1.3h-1.5v-1.3h-0.6v-0.4h-1.4v0.4h-0.2l-0.5,0.3v1h-0.2v-0.7h-0.3v-2h-0.7
				v-0.8h-1.6v-1.9l-1.7-0.2v-0.4c0-0.3-0.3-0.6-0.6-0.6l-2.5-0.4v-0.2h0.3v-0.7l-2.2-0.2v-0.3h-0.5v-0.9h-0.7v-4.5l-0.6-0.7
				l-5.7,1.1l-0.6,0.5v12.7h-0.3v0.8h-0.5v-4.6l-5.4,1.4v-0.2h0.1v-0.4h-0.1v-0.2h0.1v-0.3h-0.1v-0.2h0.1v-0.3h-0.1v-0.2h0.1v-0.3
				h-0.1v-0.3h0.1v-0.4h-0.1V387h0.1v-0.4h-0.1v-0.2h0.1v-0.3h-0.1v-0.2h0.1v-0.3h-0.1v-0.2h0.1V385h-0.1v-0.2h0.1v-0.4h-0.1v-0.2
				h0.1v-0.4h-0.1v-0.2h0.1v-0.4h-0.1V383h0.1v-0.4h-0.1v-0.2h0.1V382h-0.1v-0.2h0.1v-0.4h-0.1v-0.8c0-1.3-9.6-0.9-9.6-0.1v1.2h-0.2
				v0.4h0.2v0.2h-0.2v0.4h0.2v0.2h-0.2v0.4h0.2v0.2h-0.2v0.4h0.2v0.2h-0.2v0.4h0.2v0.2h-0.2v0.4h0.2v0.2h-0.2v0.4h0.2v0.2h-0.2v0.3
				h0.2v0.2h-0.2v0.3h0.2v0.2h-0.2v0.4h0.2v0.2h-0.2v0.4h0.2v0.2h-0.2v0.3h0.2v0.2h-0.2v0.3h0.2v0.2h-0.2v0.3h0.2v0.2h-0.2v0.4h0.2
				v0.2h-0.2v0.4h0.2v0.2h-0.2v0.4h0.2v0.2h-0.2v0.4h0.2v0.2h-0.2v0.4h0.2v0.2h-0.2v0.4h0.2v0.2h-0.2v0.3h0.2v0.2h-0.2v0.3h0.2v0.2
				h-0.2v0.4h0.2v0.2h-0.2v0.4h0.2v0.2h-0.2v0.4h0.2v0.2h-0.2v0.4h0.2v0.2h-0.2l0,0h-1.6v-8.7h-0.7V387h-0.1v-0.2H-93v-0.4h-0.1v0.5
				h-3.6v-2.6l-0.4-0.6h-0.1v-1.3h0.2c0.1,0,0.2-0.1,0.2-0.2v-7.9c0-0.5,0.1-0.6-0.4-0.6c-0.7-0.1-1.3-0.1-1.9-0.1v-0.1h0.1
				c0.1,0,0.1,0,0.1-0.1s0-0.1-0.1-0.1h-0.1v-0.6h0.1c0.1,0,0.1,0,0.1-0.1s0-0.1-0.1-0.1h-0.1v-0.6h0.1c0.1,0,0.1,0,0.1-0.1
				s0-0.1-0.1-0.1h-0.1v-0.6h0.1c0.1,0,0.1,0,0.1-0.1s0-0.1-0.1-0.1h-0.1v-4c0-0.1-0.1-0.2-0.2-0.2s-0.2,0.1-0.2,0.2v4l0,0h-0.1
				c-0.1,0-0.1,0-0.1,0.1s0,0.1,0.1,0.1h0.1l0,0v0.6l0,0h-0.1c-0.1,0-0.1,0-0.1,0.1s0,0.1,0.1,0.1h0.1l0,0v0.2l0,0l-0.4,0.4
				l-0.3,0.3l-0.8,0.8c-0.4,0-0.8,0-1.2,0.1c-0.3,0-0.6,0-0.9,0.1c-0.4,0-0.5,0-0.5,0.4v1.9v0.6h-0.7v0.3l0.5,0.4v0.2h0.3l0,0h-0.7
				v0.3l0.5,0.4v0.2h0.3l0,0h-0.7v0.3l0.5,0.4v0.2h0.3l0,0h-0.7v0.3l0.5,0.4v0.2h0.3l0,0h-0.7v0.3l0.5,0.4v0.2h0.3l0,0h-0.7v0.3
				l0.5,0.4v0.2h0.3l0,0h-0.7v0.3l0.5,0.4v0.2h0.2v4.5h-4.1v0.6h-0.5v8.2h-1.3v-0.4h-0.2v-0.3h-0.5v-0.2l-0.8-0.9h-0.3v0.9h-0.4
				v-0.2h-0.3v0.3h-0.5v1.8h-1.1v1h-0.6v1.3h-0.5v0.2h-0.2v0.2h-0.3v-0.1h0.1v-0.1h-0.1v-0.1h0.1v-0.1h-0.1v0h0.1v-0.1h-0.1v-0.1
				h0.1v-0.1h-0.1v-0.1h0.1v-0.1h-0.1V399h0.1v-0.1h-0.1v-0.3h0.1v-0.1h-0.1v-0.1h0.1v-0.1h-0.1v-0.1h0.1v-0.1h-0.1V398h0.1v-0.1
				h-0.1v-0.1h0.1v-0.2h-0.1l0,0h0.2v-0.2h-0.1l0,0h-0.1v-0.1h0.1v-0.1h-0.1v-0.1h0.1V397h-0.1l0,0h0.2v-0.4h-0.1l0,0h-0.1v-0.1h0.1
				v-0.1h-0.1v-0.1h0.1v-0.1h-0.1v-0.1h0.1V396h-0.1v-0.1h0.1v-0.3h-0.1v-0.1h0.1v-0.1h-0.1v-0.1h0.1v-0.1h-0.1v-0.1h0.1V395h-0.1
				v-0.1h0.1v-0.3h-0.1v-0.1h0.1v-0.1h-0.1v-0.1h0.1v-0.1h-0.1v-0.1h0.1V394h-0.1v-1.7h-0.8v-0.7h-0.5v-0.3l-0.6-0.5h-0.2v0.5h-0.6
				l-0.4-0.5h-0.2v0.8h-0.7v0.6h-0.5v-5.1c0-0.2-0.2-0.3-0.4-0.4c-0.1,0-0.1,0-0.2,0v-0.2c0-0.3-0.2-0.5-0.5-0.5v-0.9l-0.5,0.1v-0.8
				c0-0.1-0.1-0.2-0.2-0.2l-2.8,0.5c-0.1,0-0.2,0.1-0.2,0.2v0.6h-0.5v0.7c-0.3,0-0.5,0.2-0.5,0.5v0.3c-0.1,0-0.3,0.1-0.4,0.1
				c-0.2,0-0.4,0.2-0.4,0.4v13.3h-1.2v-0.2h0.1v-0.3h-0.9v0.3l0,0v0.1h-0.1V398h-0.1v-0.4h-0.1v-0.7h-0.7v-0.2h0.1v-0.4h-0.2v-0.1
				h-1.3v0.1h-1.1v0.4h0.1v0.2h-0.2v0.7h-1.2v0.4h-1.3v4.8h-1.3v3.4h-7.4v5.6H42.2V411.9z M-101.7,373.9c0,0-0.3,0-0.6,0
				c-0.4,0-0.9,0-1,0c0,0,0.1-0.2,1-0.3c0.3,0,0.6,0,1,0C-101.6,373.9-101.7,373.9-101.7,373.9 M-100.4,373.2c-0.1,0-0.2,0-0.3,0
				l0.4-0.4l0.3-0.3l0.1-0.1l-0.1,0.2L-100.4,373.2L-100.4,373.2z M-99.6,372.9L-99.6,372.9L-99.6,372.9c-0.1,0-0.2,0-0.2,0.1
				s0,0.1,0.1,0.1h0.1l0,0v0.1l0,0c-0.1,0-0.3,0-0.4,0h-0.1l0.1-0.1l0.4-0.7l0,0V372.9z M-99.6,372L-99.6,372L-99.6,372L-99.6,372
				L-99.6,372L-99.6,372z M14.2,392.2L14.2,392.2h-0.1v-0.3h0.1h0.1v0.3H14.2z M14.2,391.5L14.2,391.5h-0.1v-0.3h0.1h0.1v0.3H14.2z
				 M14.2,390.9L14.2,390.9h-0.1v-0.3h0.1h0.1v0.3H14.2z M14.2,390.3L14.2,390.3h-0.1V390h0.1h0.1v0.3H14.2z M14.2,389.6L14.2,389.6
				h-0.1v-0.3h0.1h0.1v0.3H14.2z"/>
		</g>
	</g>
</g>
<g>
	<g>
		<path class="st1" d="M113.5,393.6L113.5,393.6L113.5,393.6l-0.1-0.3l0,0l0,0v0.3H113.5z M113.5,394.1L113.5,394.1L113.5,394.1
			l-0.1-0.3l0,0l0,0v0.3H113.5z M113.5,394.7L113.5,394.7L113.5,394.7l-0.1-0.3l0,0l0,0v0.3H113.5z M113.5,395.2L113.5,395.2
			L113.5,395.2l-0.1-0.3l0,0l0,0v0.3H113.5z M113.5,395.7L113.5,395.7L113.5,395.7l-0.1-0.3l0,0l0,0v0.3H113.5z M19.6,379L19.6,379
			L19.6,379L19.6,379L19.6,379L19.6,379z M19.6,379.8L19.6,379.8L19.6,379.8c-0.1,0-0.1,0-0.1,0.1c0,0,0,0.1,0.1,0.1h0.1l0,0l0,0
			l0,0c-0.1,0-0.3,0-0.4,0h-0.1l0.1-0.1l0.4-0.5l0,0v0.4H19.6z M19,380.1c-0.1,0-0.1,0-0.3,0l0.3-0.4l0.3-0.3l0.1-0.1l-0.1,0.1
			L19,380.1L19,380.1z M17.9,380.6c0,0-0.3,0-0.5,0c-0.4,0-0.8,0-0.8,0s0.1-0.1,0.8-0.3c0.3,0,0.5,0,0.8,0
			C17.9,380.6,17.9,380.6,17.9,380.6 M131.1,407.2v-3.6h-3.7v-7.5h-1.7v-1.3h-0.3v-0.5h-0.3v-1.3h-0.3v1.1h-0.5v0.5h-2.3v1.2h-0.9
			v-2.4h-0.8v-0.4h-0.7v-0.1h-0.9v-0.1h-0.5v-0.8h-0.7v-0.3h-0.1v-0.7h-0.1v0.7l-0.7,0.1v-0.1l-0.7-0.3l-0.9,0.3v0.4H114v0.4h-0.3
			v-0.3h-0.3v0.3h-0.1h-0.1v1.2H113v0.3h0.3v0.3H113v0.3h0.3v0.3H113v0.3h0.3v0.3H113v0.3h0.3v0.3H113v0.1l0,0v-1.3h-0.4v-0.1
			l-0.4-0.5l0,0v-0.4h-0.5v-13.9l-0.1-0.1l0,0c0.3,0,0.4-0.1,0.4-0.5c0-0.3-0.7-0.7-0.9-0.7s-0.3,0.3-0.3,0.3h0.3v0.1l-0.9,0.1
			l-0.3-0.1v-0.3l-1.9-1.1l-2.3,0.1l-0.3,0.1c-0.9,0-1.3,0.7-1.3,0.7h0.4l-0.3,0.1h-1.1l-0.8,0.5c-0.1,0.1-0.3,0.1-0.4,0.3l0,0
			l-0.1,0.1c0,0.1,0.1,0.3,0.3,0.4l-0.4,0.3c-0.1-1.1-0.9-1.9-1.9-2v-0.4c0-0.1-0.1-0.3-0.3-0.3h-0.1v-0.9h-0.1v0.9h-0.1
			c-0.1,0-0.3,0.1-0.3,0.3v0.4c-1.1,0.1-1.9,1.1-2,2.1l-1.5,0.4v0.4h-1.1l-1.5,0.8v11.9h-0.7v0.7h-0.5v5.2H91v-23l-0.7-0.3l0.4-0.1
			l0.3,0.1V376l-1.7-0.7l-0.8-0.1l-0.8-0.4v-0.7l-1.5-0.5c-0.3-0.4-0.9-0.7-1.6-0.7c-0.1,0-0.3,0-0.5,0v-0.8h-0.3v0.8
			c-0.3,0.1-0.5,0.3-0.8,0.4h-0.1l-0.7,0.7v0.9l-1.6,0.5v1.3h-0.4v0.8h-0.8v1.3l-0.3,0.1v0.5l0.3-0.1v0.4l-0.5,0.5l0.3,0.1h0.3v0.4
			h-0.7V394H78v0.3h-0.4v0.1h-0.4v0.5l-1.2,0.3v1.5h-0.8v-1.7H75v1.7h-0.7v-1.6h0.1v-0.3h-0.1v-0.1H73v-0.4h0.3v-0.5l0,0v-0.3H73
			v1.3h-1.1v-0.5h-1.1v-2.6h-0.8v-0.9h-2.9l-1.3-0.8l0,0H66v-0.3l0,0v-1.3h0.1V388H66v-1.3h0.1v-0.3H66v-1.3h0.1v-0.3H66v-1.3h0.1
			v-0.3H66v-1.3h0.1v-0.3H66v-1.3h0.1v-0.3H66v-9.4h-0.1v-2.4h-1.5v-0.1l0,0v-0.3c0,0-0.7-0.5-0.8-0.7c-0.1,0-0.3,0.1-0.4,0.1
			c-0.5,0.3-0.9,0.5-1.2,0.8l0,0V368h-1.1v0.5h-0.5v0.7H60v1.5l0,0c-0.5,0-0.5,1.6,0,1.6v0.8c-0.5,0.1-0.5,0.7-0.5,1.1v22l-0.5,0.1
			v0.9h-0.5v-1.3h-1.3v-1.1h-0.5v-0.3h-1.1v0.3h-0.3l-0.4,0.3v0.8h-0.1v-0.3h-0.3v-1.7h-0.7v-0.7h-1.3v-1.6l-1.3-0.1v-0.3
			c0-0.3-0.3-0.5-0.5-0.5l-2-0.3v-0.1h0.3v-0.5l-1.9-0.1v-0.3h-0.4v-0.8H46v-3.7l-0.4-0.5l-4.6,0.9l-0.5,0.4v10.5h-0.3v0.7h-0.4
			v-3.7l-4.4,1.2v-0.1h0.1v-0.3h-0.1v-0.1h0.1v-0.3h-0.1v-0.5h0.1v-0.3h-0.1v-0.1h0.1v-0.3h-0.1v-0.1h0.1v-0.3h-0.1v-0.1h0.1v-0.3
			h-0.1v-0.1h0.1v-0.3h-0.1v-0.1h0.1v-0.7h-0.1v-0.1h0.1v-0.3h-0.1v-0.1h0.1v-0.3h-0.1v-0.1h0.1V389h-0.1v-0.1h0.1v-0.3h-0.1v-0.1
			h0.1v-0.3h-0.1V388h0.1v-0.4h-0.1v-0.1h0.1v-0.3h-0.1v-0.9c0-1.1-7.9-0.8-7.9-0.1v1.1h-0.1v0.3h0.1v0.1h-0.1v0.3h0.1v0.1h-0.1v0.3
			h0.1v0.1h-0.1v0.3h0.1v0.1h-0.1v0.3h0.1v0.1h-0.1v0.3h0.1v0.1h-0.1v0.3h0.1v0.1h-0.1v0.3h0.1v0.1h-0.1v0.3h0.1v0.1h-0.1v0.3h0.1
			v0.1h-0.1v0.3h0.1v0.1h-0.1v0.3h0.1v0.1h-0.1v0.3h0.1v0.1h-0.1v0.3h0.1v0.1h-0.1v0.3h0.1v0.1h-0.1v0.3h0.1v0.1h-0.1v0.3h0.1v0.1
			h-0.1v0.3h0.1v0.1h-0.1v0.3h0.1v0.1h-0.1v0.3h0.1v0.1h-0.1v0.3h0.1v0.1h-0.1v0.3h0.1v0.1h-0.1v0.3h0.1v0.1h-0.1v0.3h0.1v0.1h-0.1
			v0.3h0.1v0.1h-0.1v0.3h0.1v0.1h-0.1l0,0H26v-7.1h-0.5v-0.8h-0.1v-0.1h-0.1v-0.3H25v0.4h-2.9v-2.1l-0.4-0.5h-0.1v-1.1h0.3
			c0.1,0,0.1,0,0.1-0.1v-6.5c0-0.4,0-0.5-0.4-0.5c-0.5,0-1.1-0.1-1.6-0.1l0,0l0,0c0,0,0.1,0,0.1-0.1c0,0,0-0.1-0.1-0.1l0,0v-0.5l0,0
			c0,0,0.1,0,0.1-0.1s0-0.1-0.1-0.1l0,0V377l0,0c0,0,0.1,0,0.1-0.1c0,0,0-0.1-0.1-0.1l0,0v-0.5l0,0c0,0,0.1,0,0.1-0.1
			c0,0,0-0.1-0.1-0.1l0,0v-3.3c0-0.1,0-0.1-0.1-0.1s-0.1,0-0.1,0.1v3.3l0,0h-0.1c0,0-0.1,0-0.1,0.1c0,0,0,0.1,0.1,0.1h0.1l0,0v0.5
			l0,0h-0.1c0,0-0.1,0-0.1,0.1c0,0,0,0.1,0.1,0.1h0.1l0,0v0.1l0,0l-0.4,0.4l-0.3,0.3l-0.7,0.7c-0.3,0-0.7,0-0.9,0s-0.5,0-0.7,0
			c-0.3,0-0.4,0-0.4,0.4v1.6v0.5h-0.7v0.3l0.4,0.3v0.3h0.3l0,0h-0.7v0.3l0.4,0.3v0.3h0.3l0,0h-0.7v0.3l0.4,0.3v0.3h0.3l0,0h-0.7v0.3
			l0.4,0.3v0.3h0.3l0,0h-0.7v0.3l0.4,0.3v0.3h0.3l0,0h-0.7v0.3l0.4,0.3v0.3h0.3l0,0h-0.7v0.3l0.4,0.3v0.3h0.1v3.7h-3.4v0.5h-0.5v6.8
			h-1.1v-0.3h-0.1V397h-0.4v-0.1l-0.7-0.8H9.8v0.8H9.4v-0.1H9.2v0.3H8.8v1.5H7.8v0.8H7.3v1.1H6.9v0.1H6.8v0.1H6.5l0,0l0,0v1.6l0,0
			v-0.1l0,0v-0.1l0,0v-0.1l0,0v-0.1l0,0v-0.1l0,0v-0.1l0,0v-0.1l0,0v-0.1l0,0V401l0,0v-0.1l0,0v-0.1l0,0v-0.1l0,0v0.3l0,0v-0.1l0,0
			v-0.1l0,0v-0.1l0,0v-0.1l0,0v-0.1l0,0v-0.1l0,0V400l0,0l0,0h0.1v-0.1H6.5l0,0l0,0v-0.1l0,0v-0.1l0,0v-0.1l0,0v0.1l0,0l0,0h0.1
			v-0.1H6.5l0,0l0,0v-0.1l0,0v-0.1l0,0V399l0,0v-0.1l0,0v-0.1l0,0v-0.1l0,0v-0.1l0,0v-0.1l0,0v-0.1l0,0v-0.1l0,0v0.1l0,0l0,0l0,0
			v-0.1l0,0V398l0,0v-0.1l0,0v-0.1l0,0v-0.1l0,0v-0.1l0,0v-0.1l0,0v-0.1l0,0V397l0,0v-0.1l0,0v-1.5H5.8v-0.5H5.5v-0.3l-0.5-0.4H4.7
			v0.4H4.1l-0.3-0.4H3.7v0.7H3.2v0.5H2.8v-4.2c0-0.1-0.1-0.3-0.3-0.3H2.4v-0.1c0-0.3-0.1-0.4-0.4-0.4v-0.7H1.6v-0.7
			c0-0.1-0.1-0.1-0.1-0.1l-2.3,0.4c-0.1,0-0.1,0.1-0.1,0.1v0.5h-0.4v0.7c-0.3,0-0.4,0.3-0.4,0.4v0.3c-0.1,0-0.3,0-0.4,0
			c-0.1,0-0.3,0.1-0.3,0.3v11h-1.2v-0.1h0.1v-0.3h-0.8v0.3l0,0v0.1h-0.1v-2.3h-0.1V400h-0.1v-0.5h-0.5v0.1H-5v-0.4h-0.1V399h-1.1
			v0.1h-0.9v0.4H-7v0.1h-0.1v0.5h-0.9v0.4h-1.1v4h-1.1v2.8h-5.7v4.6h33.2H19h0.3h0.4h43.6h50.3h23.2v-4.8H131.1z"/>
	</g>
</g>
<polygon class="st2" points="-126.7,379.9 -127.3,412 -124.2,412 -125.3,379.9 "/>
<polygon class="st2" points="-127.2,381.2 -130.4,383.5 -132.7,396.6 -131.5,395.7 -125.8,383.6 -126.5,381.4 "/>
<polygon class="st2" points="-124.5,378.9 -126,380.6 -125.8,381.3 -122.2,383 -110.1,378.2 -111.4,377.6 "/>
<polygon class="st2" points="-137,368.9 -129.5,380 -127.3,380.5 -126.8,379.9 -127.2,375.9 -137.1,367.4 "/>
<path class="st2" d="M-125.4,380.9c0.1-0.8-0.4-1.7-1.2-1.8c-0.8-0.1-1.6,0.4-1.8,1.3c-0.1,0.8,0.4,1.7,1.2,1.8
	C-126.3,382.3-125.5,381.7-125.4,380.9"/>
<path class="st3" d="M-125.4,380.9c0.1-0.8-0.4-1.7-1.2-1.8c-0.8-0.1-1.6,0.4-1.8,1.3c-0.1,0.8,0.4,1.7,1.2,1.8
	C-126.3,382.3-125.5,381.7-125.4,380.9z"/>
<rect x="-137.2" y="367.3" class="st4" width="27.3" height="44.7"/>
<polygon class="st2" points="-100.1,411.9 -95.9,411.9 -96.5,372.5 -98.5,372.5 "/>
<g>
	<g>
		<defs>
			<rect id="SVGID_1_" x="-118.6" y="355.5" width="37.1" height="61.1"/>
		</defs>
		<clipPath id="SVGID_2_">
			<use xlink:href="#SVGID_1_"  style="overflow:visible;"/>
		</clipPath>
		<polygon class="st5" points="-98.5,371.7 -100.1,415.4 -95.9,416.5 -96.5,371.7 		"/>
	</g>
</g>
<polygon class="st2" points="-95.8,374.6 -91.4,377.8 -88.4,395.5 -90,394.4 -97.7,377.9 -96.8,374.9 "/>
<polygon class="st2" points="-119,370.5 -102.6,377 -97.7,374.7 -97.4,373.7 -99.4,371.4 -117.2,369.7 "/>
<polygon class="st2" points="-95.8,367.3 -96.3,372.7 -95.6,373.5 -92.6,372.8 -82.5,357.7 -82.3,355.8 "/>
<path class="st2" d="M-98.2,374.1c-0.2-1.1,0.5-2.2,1.7-2.4c1.1-0.2,2.2,0.6,2.4,1.7c0.2,1.1-0.6,2.2-1.7,2.4S-98,375.2-98.2,374.1"
	/>
<path class="st6" d="M-98.2,374.1c-0.2-1.1,0.5-2.2,1.7-2.4c1.1-0.2,2.2,0.6,2.4,1.7c0.2,1.1-0.6,2.2-1.7,2.4
	C-97,376-98,375.2-98.2,374.1z"/>
<polygon class="st2" points="-41.9,379.1 -80.9,379.6 -86.6,400.4 -37.4,400.3 "/>
<polygon class="st7" points="-83.9,397.3 -40,397.1 -43,380.9 -79.6,381.5 "/>
<polygon class="st2" points="-53.1,380.9 -52.5,397.9 -53.9,397.6 -54.3,380.5 "/>
<polygon class="st2" points="-67.1,381.3 -69,397.9 -70.5,398 -68.3,380.2 "/>
<polygon class="st2" points="-81.7,388.2 -41.4,388.2 -40.8,389.3 -82.3,389.3 "/>
<polygon class="st2" points="-63.5,412 -58.9,411.9 -60.2,398.6 -61.8,398.2 "/>
</svg>
