<?xml version="1.0" encoding="utf-8"?>
<!-- Generator: Adobe Illustrator 18.1.1, SVG Export Plug-In . SVG Version: 6.00 Build 0)  -->
<!DOCTYPE svg PUBLIC "-//W3C//DTD SVG 1.1//EN" "http://www.w3.org/Graphics/SVG/1.1/DTD/svg11.dtd">
<svg version="1.1" id="Layer_1" xmlns="http://www.w3.org/2000/svg" xmlns:xlink="http://www.w3.org/1999/xlink" x="0px" y="0px"
	 viewBox="0 0 781.5 186.4" enable-background="new 0 0 781.5 186.4" xml:space="preserve">
<g>
	<g>
		<defs>
			<rect id="SVGID_1_" x="0" y="0" width="781.5" height="187.4"/>
		</defs>
		<clipPath id="SVGID_2_">
			<use xlink:href="#SVGID_1_"  overflow="visible"/>
		</clipPath>
		<path clip-path="url(#SVGID_2_)" fill="#ECF4FD" d="M780.5,186.4H1C1,186.4,2.3,1,393.6,1c387.5,0,386.3,185.4,386.3,185.4"/>
	</g>
</g>
<polygon fill="#45772F" points="369.2,95.1 367.3,147.7 372.4,149 371.6,95.1 "/>
<polygon fill="none" stroke="#FFFFFF" stroke-width="0.278" stroke-miterlimit="10" points="369.2,95.1 367.3,147.7 372.4,149 
	371.6,95.1 "/>
<polygon fill="#45772F" points="373.3,98.7 378.5,102.4 382.1,123.7 380.3,122.4 371,102.6 372.1,99 "/>
<polygon fill="none" stroke="#FFFFFF" stroke-width="0.278" stroke-miterlimit="10" points="373.3,98.7 378.5,102.4 382.1,123.7 
	380.3,122.4 371,102.6 372.1,99 "/>
<polygon fill="#45772F" points="370.9,98.8 365.1,101.5 345.4,93.7 347.5,92.8 368.9,94.8 371.3,97.6 "/>
<polygon fill="none" stroke="#FFFFFF" stroke-width="0.278" stroke-miterlimit="10" points="370.9,98.8 365.1,101.5 345.4,93.7 
	347.5,92.8 368.9,94.8 371.3,97.6 "/>
<polygon fill="#45772F" points="372.6,96.4 373.2,89.9 389.5,76 389.3,78.4 377.1,96.5 373.5,97.3 "/>
<polygon fill="none" stroke="#FFFFFF" stroke-width="0.278" stroke-miterlimit="10" points="372.6,96.4 373.2,89.9 389.5,76 
	389.3,78.4 377.1,96.5 373.5,97.3 "/>
<path fill="#45772F" d="M370.3,98c-0.2-1.4,0.7-2.7,2-2.9c1.3-0.2,2.6,0.7,2.8,2c0.2,1.4-0.7,2.7-2,2.9
	C371.8,100.3,370.5,99.4,370.3,98"/>
<path fill="none" stroke="#FFFFFF" stroke-width="0.278" stroke-miterlimit="10" d="M370.3,98c-0.2-1.4,0.7-2.7,2-2.9
	c1.3-0.2,2.6,0.7,2.8,2c0.2,1.4-0.7,2.7-2,2.9C371.8,100.3,370.5,99.4,370.3,98z"/>
<polygon fill="#45772F" points="406.7,69.2 409.5,149.6 401.6,151.6 403,69.2 "/>
<polygon fill="none" stroke="#FFFFFF" stroke-width="0.278" stroke-miterlimit="10" points="406.7,69.2 409.5,149.6 401.6,151.6 
	403,69.2 "/>
<polygon fill="#45772F" points="400.4,74.6 392.3,80.4 386.7,113.1 389.6,111 404,80.6 402.3,75.1 "/>
<polygon fill="none" stroke="#FFFFFF" stroke-width="0.278" stroke-miterlimit="10" points="400.4,74.6 392.3,80.4 386.7,113.1 
	389.6,111 404,80.6 402.3,75.1 "/>
<polygon fill="#45772F" points="403.9,74.9 412.9,79 443.3,67.1 440.1,65.6 407.1,68.7 403.3,73 "/>
<polygon fill="none" stroke="#FFFFFF" stroke-width="0.278" stroke-miterlimit="10" points="403.9,74.9 412.9,79 443.3,67.1 
	440.1,65.6 407.1,68.7 403.3,73 "/>
<polygon fill="#45772F" points="401.4,71.3 400.5,61.2 375.4,39.9 375.7,43.5 394.5,71.4 400.1,72.7 "/>
<polygon fill="none" stroke="#FFFFFF" stroke-width="0.278" stroke-miterlimit="10" points="401.4,71.3 400.5,61.2 375.4,39.9 
	375.7,43.5 394.5,71.4 400.1,72.7 "/>
<path fill="#45772F" d="M405,73.7c0.4-2.1-1-4.2-3.1-4.5c-2.1-0.4-4.1,1-4.4,3.2c-0.4,2.1,1,4.2,3.1,4.5
	C402.6,77.2,404.6,75.8,405,73.7"/>
<path fill="none" stroke="#FFFFFF" stroke-width="0.278" stroke-miterlimit="10" d="M405,73.7c0.4-2.1-1-4.2-3.1-4.5
	c-2.1-0.4-4.1,1-4.4,3.2c-0.4,2.1,1,4.2,3.1,4.5C402.6,77.2,404.6,75.8,405,73.7z"/>
<line fill="none" stroke="#45772F" stroke-width="1.051" stroke-miterlimit="10" x1="277.7" y1="136.3" x2="278.2" y2="96.2"/>
<path fill="#45772F" d="M280.3,87.1c0.2,1.9-1.2,3.9-2.4,3.9c-1.2,0-2.5-2.2-2-4c0.3-1.2,2.3-5.4,2.3-5.4S280.2,85.9,280.3,87.1"/>
<path fill="#45772F" d="M274,97.5c1.6,1.1,2.2,3.4,1.4,4.3c-0.8,0.9-3.3,0.5-4.3-1c-0.7-1-2.6-5.3-2.6-5.3S273.1,96.8,274,97.5"/>
<path fill="#45772F" d="M274.1,90.8c1.6,1.1,2.2,3.4,1.4,4.3c-0.8,0.9-3.3,0.5-4.3-1c-0.7-1-2.6-5.3-2.6-5.3S273.1,90.1,274.1,90.8"
	/>
<path fill="#45772F" d="M274,104.5c1.6,1.1,2.2,3.4,1.4,4.3c-0.8,0.9-3.3,0.5-4.3-1c-0.7-1-2.6-5.3-2.6-5.3S273,103.8,274,104.5"/>
<path fill="#45772F" d="M281.9,97.5c-1.6,1.1-2.2,3.4-1.4,4.3c0.8,0.9,3.3,0.5,4.3-1c0.7-1,2.7-5.3,2.7-5.3S282.9,96.8,281.9,97.5"
	/>
<path fill="#45772F" d="M282,90.8c-1.6,1.1-2.2,3.4-1.4,4.3c0.8,0.9,3.3,0.5,4.3-1c0.7-1,2.7-5.3,2.7-5.3S283,90.1,282,90.8"/>
<path fill="#45772F" d="M281.9,104.5c-1.6,1.1-2.2,3.4-1.4,4.3c0.8,0.9,3.3,0.5,4.3-1c0.7-1,2.7-5.3,2.7-5.3
	S282.9,103.8,281.9,104.5"/>
<line fill="none" stroke="#45772F" stroke-width="1.051" stroke-miterlimit="10" x1="267.4" y1="136.3" x2="267.7" y2="116.3"/>
<path fill="#45772F" d="M268.9,111.6c0.1,1.1-0.7,2.3-1.4,2.2c-0.7,0-1.5-1.3-1.2-2.3c0.2-0.7,1.4-3.2,1.4-3.2
	S268.9,110.9,268.9,111.6"/>
<path fill="#45772F" d="M265.3,117.6c0.9,0.7,1.3,2,0.8,2.5c-0.5,0.5-1.9,0.3-2.5-0.6c-0.4-0.6-1.5-3.1-1.5-3.1
	S264.7,117.2,265.3,117.6"/>
<path fill="#45772F" d="M265.3,113.7c0.9,0.7,1.3,2,0.8,2.5c-0.5,0.5-1.9,0.3-2.5-0.6c-0.4-0.6-1.5-3.1-1.5-3.1
	S264.7,113.3,265.3,113.7"/>
<path fill="#45772F" d="M265.3,121.7c0.9,0.7,1.3,2,0.8,2.5s-1.9,0.3-2.5-0.6c-0.4-0.6-1.5-3.1-1.5-3.1S264.7,121.3,265.3,121.7"/>
<path fill="#45772F" d="M269.9,117.7c-0.9,0.6-1.3,2-0.8,2.5c0.5,0.5,1.9,0.3,2.5-0.6c0.4-0.6,1.6-3.1,1.6-3.1
	S270.5,117.2,269.9,117.7"/>
<path fill="#45772F" d="M269.9,113.7c-0.9,0.6-1.3,2-0.8,2.5c0.5,0.5,1.9,0.3,2.5-0.6c0.4-0.6,1.6-3.1,1.6-3.1
	S270.5,113.3,269.9,113.7"/>
<path fill="#45772F" d="M269.9,121.7c-0.9,0.6-1.3,2-0.8,2.5c0.5,0.5,1.9,0.3,2.5-0.6c0.4-0.6,1.6-3.1,1.6-3.1
	S270.5,121.3,269.9,121.7"/>
<polygon fill="#45772F" points="584.4,98.2 633.7,98.2 629.2,76.9 590.2,77.4 "/>
<polygon fill="#FFFFFF" points="587.2,95.2 631,94.9 628.1,78.7 591.4,79.3 "/>
<polygon fill="#45772F" points="618,78.7 618.6,95.8 617.2,95.4 616.8,78.4 "/>
<polygon fill="#45772F" points="604,79.1 602.1,95.7 600.6,95.8 602.8,78 "/>
<polygon fill="#45772F" points="589.3,86 629.7,86 630.3,87.1 588.8,87.1 "/>
<polygon fill="#45772F" points="611.9,114.1 610.9,96.4 609.3,96 607.6,113.8 "/>
<polygon fill="#45772F" points="575.3,109.7 594.4,107 591.5,98.8 576.4,101.2 "/>
<polygon fill="#FFFFFF" points="576.2,108.3 593.2,105.8 591.1,99.6 576.9,101.8 "/>
<polygon fill="#45772F" points="587.2,100.1 588.4,106.8 587.8,106.8 586.7,100.1 "/>
<polygon fill="#45772F" points="581.4,107.8 582,107.7 581.8,101.1 581.3,100.7 "/>
<polygon fill="#45772F" points="576.5,104.6 592.2,102.4 592.5,102.8 576.3,105 "/>
<polygon fill="#45772F" points="586.8,114.4 585.4,107.5 584.8,107.4 585.1,114.6 "/>
<polygon fill="#45772F" points="548.3,112.9 574.9,107.7 570.2,96.5 549.2,100.9 "/>
<polygon fill="#FFFFFF" points="549.5,111 573.2,106.2 569.8,97.6 550.1,101.8 "/>
<polygon fill="#45772F" points="564.4,98.7 566.5,108 565.7,107.9 563.7,98.6 "/>
<polygon fill="#45772F" points="556.9,100.4 557.6,109.7 556.8,109.9 556.1,99.9 "/>
<polygon fill="#45772F" points="549.7,105.7 571.5,101.5 571.9,102 549.5,106.4 "/>
<polygon fill="#45772F" points="564.8,118.8 562.4,109.2 561.5,109.1 562.5,119.1 "/>
<path fill="#E9AC14" d="M723.5,34.5c0.4,4.8-3.1,9.1-7.8,9.6c-4.7,0.4-8.9-3.2-9.3-8c-0.4-4.8,3.1-9.1,7.8-9.6
	C718.9,26.1,723.1,29.7,723.5,34.5"/>
<path fill="#E9AC14" d="M719.2,23.3l2.3-8.7c0.2-0.6-0.2-1.3-0.8-1.4c-0.6-0.2-1.2,0.2-1.4,0.8l-2.2,8.7c-0.2,0.6,0.2,1.3,0.8,1.4
	C718.5,24.3,719.1,24,719.2,23.3"/>
<path fill="#E9AC14" d="M725.7,29l7.2-5.2c0.5-0.4,0.6-1.1,0.3-1.6c-0.4-0.5-1.1-0.7-1.6-0.3l-7.2,5.2c-0.5,0.4-0.6,1.1-0.3,1.6
	C724.5,29.2,725.2,29.3,725.7,29"/>
<path fill="#E9AC14" d="M727.2,37.6l8.7,0.8c0.6,0.1,1.2-0.4,1.2-1.1c0.1-0.6-0.4-1.2-1-1.3l-8.7-0.8c-0.6-0.1-1.2,0.4-1.2,1.1
	C726.1,36.9,726.6,37.5,727.2,37.6"/>
<path fill="#E9AC14" d="M722.9,45.1l6.2,6.3c0.4,0.5,1.2,0.5,1.6,0c0.4-0.5,0.4-1.2,0-1.6l-6.2-6.3c-0.4-0.5-1.2-0.5-1.6,0
	C722.5,43.9,722.5,44.6,722.9,45.1"/>
<path fill="#E9AC14" d="M714.9,48.1l0.8,8.9c0.1,0.6,0.6,1.1,1.2,1.1c0.6-0.1,1.1-0.6,1-1.3l-0.8-8.9c-0.1-0.6-0.6-1.1-1.2-1.1
	C715.3,46.9,714.9,47.4,714.9,48.1"/>
<path fill="#E9AC14" d="M707,45.1l-5,7.4c-0.4,0.5-0.2,1.2,0.3,1.6c0.5,0.4,1.2,0.2,1.6-0.3l5-7.4c0.4-0.5,0.2-1.2-0.3-1.6
	C708,44.4,707.3,44.5,707,45.1"/>
<path fill="#E9AC14" d="M702.7,37.5l-8.4,2.3c-0.6,0.2-1,0.8-0.8,1.4c0.2,0.6,0.8,1,1.4,0.8l8.4-2.3c0.6-0.2,1-0.8,0.8-1.4
	C704,37.7,703.3,37.3,702.7,37.5"/>
<path fill="#E9AC14" d="M704.2,28.9l-7.9-3.8c-0.6-0.3-1.2,0-1.5,0.6c-0.3,0.6,0,1.3,0.5,1.5l7.9,3.8c0.6,0.3,1.2,0,1.5-0.6
	C705,29.9,704.8,29.2,704.2,28.9"/>
<path fill="#E9AC14" d="M710.7,23.3l-3.7-8.1c-0.3-0.6-0.9-0.8-1.5-0.6c-0.6,0.3-0.8,1-0.5,1.5l3.7,8.1c0.3,0.6,0.9,0.8,1.5,0.6
	C710.8,24.6,711,23.9,710.7,23.3"/>
<path fill="none" stroke="#000000" stroke-width="1.212" d="M303.2,131l0.5-4.8c0,0,0.3-1.3-1.4-1.2"/>
<polygon fill="#2A2522" points="303.9,130.4 304.4,131.8 304.1,131.8 303.7,133.1 303.4,132.5 303,132.7 302.9,131.6 302.7,131.6 
	303.4,130.3 "/>
<path fill="#2A2522" d="M291.2,122.4c0.1-1-0.7-2-1.7-2.1c-1-0.1-2,0.7-2.1,1.7c0,0.1,0,0.3,0,0.4c0,0.9,0,3.3,0.3,3.6
	c0.2,0.3,2,0.6,2.5,0.2c0.1-0.1,0.7-2.3,0.9-3.3C291.1,122.7,291.2,122.5,291.2,122.4"/>
<path fill="#2A2522" d="M287.6,120.4c0.5,0.2,1.1,1.2,1,1.5c-0.2,0.3-1.2,0.2-1.7-0.1c-0.3-0.2-0.6-1.3-0.6-1.3
	S287.3,120.3,287.6,120.4"/>
<path fill="#2A2522" d="M291.3,120.8c-0.5,0.1-1.3,1-1.2,1.3c0.1,0.3,1.1,0.4,1.7,0.2c0.3-0.1,0.9-1.2,0.9-1.2
	S291.7,120.7,291.3,120.8"/>
<path fill="#2A2522" d="M294.7,130.4c-0.1,0.6,0.4,1.2,1.1,1.3l1.8,0.2c0.6,0.1,1.2-0.4,1.3-1.1l0.1-1.1c0.1-0.6-0.4-1.2-1.1-1.3
	l-1.8-0.2c-0.6-0.1-1.2,0.4-1.3,1.1L294.7,130.4z"/>
<path fill="none" stroke="#000000" stroke-width="1.212" stroke-linecap="round" d="M296,131.4l0,0.4 M297.4,131.7l0,0.4
	 M296.7,131.5l0,0.4"/>
<path fill="#2A2522" d="M298.2,128.4c0.1-0.2,0.4-0.4,0.5-0.7c0.1-0.2,0.2-0.5,0.3-0.8c0.3-0.4,1.1-0.5,1.4,0.3
	c0.3,0.7,0.5,1,0.7,1.2c0.2,0.2,0.1,1-0.7,0.8c-0.9-0.2-1.6,0.3-1.9,0.3C298,129.7,297.6,129.2,298.2,128.4 M291,130L291,130
	c0,1.5,0,3-0.2,3.2c-0.4,0.3-0.8,1.2-0.8,1.2l1.6,0.1c0,0,0.3-3.3,1.3-4.8c2.2,0.7,5,1.5,6.7,2c0.2,0.4,0.8,0.9,0.8,1
	c0,0-0.2,1.7-0.3,1.7c-0.5,0.2-0.7,1-0.7,1l1.3,0.1l1.1-3.4l-0.5-0.7l1.6-7.7l-2-0.1c-0.1,0.7-0.5,2.1-1,2c-0.5,0-1-0.7-1.5-0.2
	c-0.5,0.4-1.3,2.7-2.4,2c-0.6-0.4-0.4-1.1-1-1.2c-1.7-0.2-1.5-1.2-2.3-1.3c-1.1-0.1-0.5-1.4-0.3-1.8l-2.7-0.1c0,0-0.5,2.3-0.2,4.1
	c0.2-0.1,0.5-0.2,0.7-0.4c0.3-0.3,0.7-0.6,0.8-0.2c0.1,0.4,0,0.8,0.3,1.1c0.2,0.3,0.6,0.1,0.5,0.6c0,0.6-0.3,1.1-0.3,1.5
	C291.5,129.9,291.2,130,291,130"/>
<path fill="#FFFFFF" d="M300,125.5c-0.5,0-1-0.7-1.5-0.2c-0.5,0.4-1.3,2.7-2.4,2c-0.6-0.4-0.4-1.1-1-1.2c-1.7-0.1-1.5-1.2-2.3-1.3
	c-1.1-0.1-0.5-1.4-0.3-1.8l8.4,0.5C300.8,124.2,300.4,125.6,300,125.5"/>
<path fill="#FFFFFF" d="M298.7,127.7c0.1-0.2,0.2-0.5,0.3-0.8c0.3-0.4,1.1-0.5,1.4,0.3c0.3,0.7,0.5,1,0.7,1.2c0.2,0.2,0.1,1-0.7,0.8
	c-0.9-0.2-1.6,0.3-1.9,0.3c-0.6,0.1-1-0.4-0.4-1.2C298.3,128.2,298.6,128,298.7,127.7"/>
<path fill="#FFFFFF" d="M290.6,128.7c-0.6-0.3-0.8-1-1-1.8c0.2-0.1,0.5-0.2,0.7-0.4c0.3-0.3,0.7-0.6,0.8-0.2c0.1,0.4,0,0.8,0.3,1.1
	c0.2,0.3,0.6,0.1,0.5,0.6c0,0.6-0.3,1.1-0.3,1.5c0,0.3-0.3,0.5-0.5,0.5v0c0-0.4,0-0.7,0-1.1C290.8,128.9,290.7,128.8,290.6,128.7"/>
<path fill="none" stroke="#000000" stroke-width="1.212" d="M323.1,134.7l0.9-4.8c0,0,0.4-1.3-1.3-1.3"/>
<polygon fill="#2A2522" points="323.7,134.1 324.2,135.7 323.9,135.6 323.3,136.9 323.1,136.3 322.7,136.4 322.7,135.3 322.5,135.3 
	323.3,134 "/>
<path fill="#2A2522" d="M311.8,125.1c0.2-1-0.5-2-1.5-2.2c-1-0.2-2,0.5-2.2,1.5c0,0.1,0,0.2,0,0.4c-0.1,0.9-0.3,3.3,0,3.6
	c0.2,0.3,2,0.7,2.5,0.4c0.2-0.1,0.9-2.3,1.2-3.2C311.8,125.4,311.8,125.2,311.8,125.1"/>
<path fill="#2A2522" d="M308.4,122.8c0.5,0.3,1,1.3,0.8,1.6c-0.2,0.3-1.2,0.1-1.7-0.2c-0.3-0.2-0.5-1.4-0.5-1.4
	S308.1,122.7,308.4,122.8"/>
<path fill="#2A2522" d="M312.1,123.5c-0.6,0.1-1.4,0.9-1.3,1.2c0.1,0.3,1.1,0.5,1.7,0.4c0.3-0.1,1-1.1,1-1.1
	S312.4,123.4,312.1,123.5"/>
<path fill="#2A2522" d="M314.7,133.4c-0.1,0.6,0.3,1.3,1,1.4l1.8,0.3c0.6,0.1,1.3-0.3,1.4-1l0.2-1.1c0.1-0.6-0.3-1.3-1-1.4l-1.8-0.3
	c-0.6-0.1-1.3,0.3-1.4,1L314.7,133.4z"/>
<path fill="none" stroke="#000000" stroke-width="1.212" stroke-linecap="round" d="M315.8,134.5l0,0.4 M317.2,134.9l0,0.4
	 M316.5,134.7l0,0.4"/>
<path fill="#2A2522" d="M318.3,131.7c0.1-0.2,0.4-0.4,0.6-0.6c0.1-0.2,0.2-0.5,0.4-0.7c0.3-0.4,1.2-0.4,1.4,0.4
	c0.2,0.7,0.5,1,0.6,1.3c0.2,0.3,0,1-0.8,0.8c-0.8-0.3-1.6,0.1-1.9,0.1C318,133,317.6,132.4,318.3,131.7 M311,132.7L311,132.7
	c-0.1,1.5-0.3,3-0.5,3.2c-0.4,0.3-0.9,1.1-0.9,1.1l1.6,0.2c0,0,0.5-3.3,1.7-4.7c2.1,0.9,4.9,2,6.5,2.6c0.2,0.4,0.7,1,0.7,1
	c0,0-0.3,1.6-0.5,1.7c-0.5,0.2-0.8,1-0.8,1l1.3,0.2l1.4-3.3l-0.4-0.8l2.2-7.5l-2-0.3c-0.2,0.7-0.7,2-1.2,1.9
	c-0.5-0.1-0.9-0.7-1.4-0.4c-0.5,0.4-1.6,2.5-2.5,1.8c-0.5-0.4-0.3-1.2-0.9-1.3c-1.7-0.3-1.4-1.3-2.2-1.5c-1-0.2-0.4-1.4-0.1-1.8
	l-2.7-0.4c0,0-0.7,2.3-0.6,4.1c0.2-0.1,0.5-0.2,0.7-0.3c0.3-0.2,0.8-0.5,0.8-0.2c0,0.4,0,0.8,0.2,1.1c0.2,0.3,0.6,0.1,0.5,0.7
	c-0.1,0.5-0.4,1.1-0.5,1.4C311.5,132.6,311.1,132.7,311,132.7"/>
<path fill="#FFFFFF" d="M320.3,129c-0.5-0.1-0.9-0.7-1.4-0.4c-0.5,0.4-1.6,2.5-2.5,1.8c-0.5-0.4-0.3-1.2-0.9-1.3
	c-1.7-0.3-1.4-1.3-2.2-1.5c-1-0.2-0.4-1.4-0.1-1.8l8.3,1.2C321.2,127.7,320.7,129.1,320.3,129"/>
<path fill="#FFFFFF" d="M318.9,131.1c0.1-0.2,0.2-0.5,0.4-0.8c0.3-0.4,1.2-0.4,1.4,0.4c0.2,0.7,0.5,1,0.6,1.3c0.2,0.3,0,1-0.8,0.8
	c-0.8-0.3-1.6,0.1-1.9,0.1c-0.6,0-1-0.5-0.3-1.2C318.4,131.6,318.7,131.3,318.9,131.1"/>
<path fill="#FFFFFF" d="M310.6,131.4c-0.5-0.3-0.8-1-0.8-1.8c0.2-0.1,0.5-0.2,0.7-0.3c0.3-0.2,0.8-0.5,0.8-0.2c0,0.4,0,0.8,0.2,1.1
	c0.2,0.3,0.6,0.1,0.5,0.7c-0.1,0.5-0.4,1.1-0.5,1.4c-0.1,0.3-0.4,0.5-0.5,0.5c0-0.4,0-0.7,0.1-1.1
	C310.9,131.5,310.7,131.5,310.6,131.4"/>
<polygon fill="#12110C" points="684.6,127.7 687.9,129.3 700.9,102.5 690.5,115.5 "/>
<polygon fill="#12110C" points="692.2,113.5 688.5,103.4 691,116.9 "/>
<polygon fill="#12110C" points="691.6,118.9 698.5,116.7 689.8,122 "/>
<path fill="#45772F" d="M683.5,102c-0.7,2.6,1,5.4,3.7,6.2c2.7,0.8,5.5-0.8,6.2-3.4c0.7-2.6-1-5.4-3.7-6.2
	C687,97.9,684.2,99.4,683.5,102"/>
<path fill="#45772F" d="M696.2,115.1c-0.8,3,1.1,6.2,4.2,7c3.1,0.9,6.3-0.9,7.1-3.9c0.8-3-1.1-6.2-4.2-7
	C700.2,110.3,697,112.1,696.2,115.1"/>
<path fill="#BECE92" d="M697.1,96c2-3.2,6.3-4.2,9.7-2.2c3.4,2,4.5,6.3,2.6,9.6c-2,3.2-6.3,4.2-9.7,2.2
	C696.3,103.5,695.1,99.2,697.1,96"/>
<polygon fill="#12110C" points="335.8,144.8 339.4,145.3 344.1,115.9 337.9,131.4 "/>
<polygon fill="#12110C" points="338.9,128.9 332.4,120.4 338.8,132.5 "/>
<polygon fill="#12110C" points="339.9,134.3 345.8,130.2 339.1,137.8 "/>
<path fill="#45772F" d="M327.3,120.5c0.1,2.7,2.5,4.9,5.3,4.8c2.8-0.1,5-2.3,4.9-5.1c-0.1-2.7-2.5-4.9-5.3-4.8
	C329.4,115.5,327.2,117.8,327.3,120.5"/>
<path fill="#45772F" d="M343.2,129.3c0.1,3.1,2.9,5.6,6.1,5.5c3.2-0.1,5.8-2.7,5.6-5.8c-0.1-3.1-2.9-5.6-6.1-5.5
	C345.6,123.6,343.1,126.2,343.2,129.3"/>
<path fill="#BECE92" d="M338.5,110.8c0.9-3.7,4.8-5.9,8.7-4.9c3.8,0.9,6.2,4.7,5.2,8.4c-0.9,3.7-4.8,5.9-8.7,4.9
	C339.9,118.2,337.5,114.5,338.5,110.8"/>
<polygon fill="#12110C" points="705.7,143.6 703.5,141.6 719.9,123.4 713.1,135.3 "/>
<polygon fill="#12110C" points="714.2,133.5 723,133.2 711.9,135.4 "/>
<polygon fill="#12110C" points="710.3,135.6 709.8,129.7 708.4,137.9 "/>
<path fill="#45772F" d="M725.5,136.5c-1.8,1.3-4.4,0.9-5.8-0.9c-1.4-1.8-1.1-4.4,0.7-5.8c1.8-1.3,4.4-0.9,5.8,0.9
	C727.6,132.6,727.3,135.2,725.5,136.5"/>
<path fill="#45772F" d="M711.7,130.9c-2,1.5-5,1.1-6.6-1c-1.6-2.1-1.3-5.1,0.8-6.6c2.1-1.5,5-1.1,6.6,1
	C714.1,126.4,713.8,129.4,711.7,130.9"/>
<path fill="#BECE92" d="M725.9,124.4c1.9-2.5,1.3-6.1-1.3-8.1c-2.6-2-6.2-1.5-8,1c-1.9,2.5-1.3,6.1,1.3,8.1
	C720.5,127.3,724.1,126.9,725.9,124.4"/>
<polygon fill="#12110C" points="673.3,121.8 671.9,121.1 677.5,109.2 675.9,116.4 "/>
<polygon fill="#12110C" points="676.1,115.2 680.6,113.7 675.3,116.6 "/>
<polygon fill="#12110C" points="674.4,116.9 673.3,114 673.9,118.4 "/>
<path fill="#45772F" d="M682.5,115c-0.7,1-2.1,1.2-3.1,0.4c-1-0.7-1.3-2.1-0.6-3.1s2.1-1.2,3.1-0.4
	C682.9,112.7,683.2,114.1,682.5,115"/>
<path fill="#45772F" d="M674.5,114.3c-0.8,1.1-2.4,1.3-3.6,0.5c-1.2-0.8-1.5-2.4-0.6-3.5c0.8-1.1,2.4-1.3,3.6-0.5
	C675,111.6,675.3,113.2,674.5,114.3"/>
<path fill="#BECE92" d="M680.8,108.7c0.6-1.6-0.3-3.3-1.9-3.9c-1.6-0.6-3.4,0.2-4,1.8s0.3,3.3,1.9,3.9
	C678.4,111.1,680.2,110.3,680.8,108.7"/>
<polygon fill="#12110C" points="418.6,149.6 420.2,149.5 419.5,136.3 418.3,143.6 "/>
<polygon fill="#12110C" points="418.5,142.4 414.9,139.3 418.8,144 "/>
<polygon fill="#12110C" points="419.4,144.6 421.6,142.3 419.4,146.2 "/>
<path fill="#45772F" d="M412.7,139.9c0.3,1.2,1.5,1.9,2.8,1.6c1.2-0.3,2-1.5,1.7-2.6c-0.3-1.2-1.5-1.9-2.7-1.6
	C413.1,137.5,412.4,138.7,412.7,139.9"/>
<path fill="#45772F" d="M420.4,142.2c0.3,1.3,1.7,2.1,3.1,1.8c1.4-0.3,2.2-1.7,1.9-3c-0.3-1.3-1.7-2.1-3.1-1.8
	C420.9,139.5,420,140.9,420.4,142.2"/>
<path fill="#BECE92" d="M416.6,134.6c0.1-1.7,1.5-3,3.3-2.9c1.7,0.1,3.1,1.5,3,3.1c-0.1,1.7-1.5,3-3.3,2.9
	C417.9,137.7,416.6,136.3,416.6,134.6"/>
<g>
	<g>
		<defs>
			<rect id="SVGID_3_" x="39.1" y="131.5" width="216.1" height="54.9"/>
		</defs>
		<clipPath id="SVGID_4_">
			<use xlink:href="#SVGID_3_"  overflow="visible"/>
		</clipPath>
		<rect x="94.8" y="142.8" clip-path="url(#SVGID_4_)" fill="#3E6E8E" width="94.5" height="5"/>
		<rect x="94.8" y="168.4" clip-path="url(#SVGID_4_)" fill="#3E6E8E" width="53.8" height="5"/>
		<rect x="94.8" y="181.2" clip-path="url(#SVGID_4_)" fill="#3E6E8E" width="43.6" height="5"/>
		<rect x="94.8" y="174.8" clip-path="url(#SVGID_4_)" fill="#3E6E8E" width="47.3" height="5"/>
		<rect x="94.8" y="162" clip-path="url(#SVGID_4_)" fill="#3E6E8E" width="60.3" height="5"/>
		<rect x="94.8" y="155.6" clip-path="url(#SVGID_4_)" fill="#3E6E8E" width="68.6" height="5"/>
		<rect x="94.8" y="149.2" clip-path="url(#SVGID_4_)" fill="#3E6E8E" width="78.8" height="5"/>
		<polygon clip-path="url(#SVGID_4_)" fill="#3E6E8E" points="76.4,186.2 93,186.2 93,139 88.8,139 		"/>
		<path clip-path="url(#SVGID_4_)" fill="#3E6E8E" d="M43.9,184.5c10.5,3.2,21-3.2,31.5,0v-5c-10.5-3.2-21,3.2-31.5,0V184.5z"/>
		<path clip-path="url(#SVGID_4_)" fill="#3E6E8E" d="M44,178.2c10.5,3.2,21-3.2,31.5,0v-5c-10.5-3.2-21,3.2-31.5,0V178.2z"/>
		<path clip-path="url(#SVGID_4_)" fill="#3E6E8E" d="M44.4,158.3c0.1,0.1,0.2,0.1,0.3,0.1c0.2,0,0.4-0.1,0.5-0.3
			c0-0.1,0.1-0.1,0.1-0.2c0.1,0,0.1,0,0.2,0c0.1,0,0.3-0.1,0.4-0.2c0.2-0.2,0.2-0.6,0-0.8l-0.1-0.1c0.1,0,0.1,0,0.2,0
			c0.2,0,0.3-0.1,0.4-0.2c0.2-0.2,0.2-0.6-0.1-0.8l-2.6-2.1c-0.1-0.1-0.2-0.1-0.2-0.1c-0.3-0.1-0.6,0.1-0.7,0.4
			C42.5,156.1,43,157.6,44.4,158.3"/>
		<path clip-path="url(#SVGID_4_)" fill="#3E6E8E" d="M43.6,162.4c0.3,0,0.6-0.2,0.6-0.5c0-0.1,0-0.1,0-0.2c0.2,0,0.4-0.2,0.5-0.4
			c0.1-0.3-0.1-0.6-0.4-0.7l-0.1,0c0.2,0,0.4-0.2,0.5-0.5c0.1-0.3-0.2-0.6-0.5-0.6l-3.2-0.5c-0.1,0-0.2,0-0.3,0
			c-0.3,0.1-0.5,0.4-0.4,0.7C40.8,161.4,42,162.4,43.6,162.4"/>
		<path clip-path="url(#SVGID_4_)" fill="#3E6E8E" d="M45.1,165.5c0-0.1-0.1-0.1-0.1-0.2c0.2-0.1,0.2-0.3,0.2-0.6
			c-0.1-0.3-0.4-0.5-0.7-0.4l-0.1,0c0.2-0.1,0.3-0.4,0.2-0.6c-0.1-0.3-0.4-0.4-0.7-0.3l-3,1.1c-0.1,0-0.2,0.1-0.3,0.2
			c-0.2,0.2-0.2,0.6,0,0.8c0.9,0.8,1.9,1.2,2.8,1.2c0.5,0,1.1-0.1,1.6-0.4C45.2,166.1,45.3,165.8,45.1,165.5"/>
		<path clip-path="url(#SVGID_4_)" fill="#3E6E8E" d="M47.9,168.3c-0.1,0-0.1-0.1-0.2-0.1c0.1-0.2,0-0.4-0.1-0.6
			c-0.2-0.2-0.6-0.2-0.8,0l-0.1,0.1c0.1-0.2,0-0.5-0.2-0.6c-0.2-0.2-0.6-0.2-0.8,0.1l-2.1,2.4c-0.1,0.1-0.2,0.2-0.2,0.3
			c-0.1,0.3,0.1,0.5,0.4,0.6c0,0,0,0,0.1,0c0,0,0,0,0,0c0,0,0,0,0,0c0,0,0,0,0.1,0c0.3,0.1,0.6,0.1,0.9,0.1c0,0,0.1,0,0.1,0
			c0,0,0,0,0,0c0,0,0,0,0.1,0c1.3,0,2.4-0.5,3-1.6C48.3,168.7,48.2,168.4,47.9,168.3"/>
		<path clip-path="url(#SVGID_4_)" fill="#3E6E8E" d="M51.8,169.2c-0.1,0-0.1,0-0.2,0c0-0.2-0.2-0.4-0.4-0.4
			c-0.3-0.1-0.6,0.1-0.7,0.4l0,0.1c0-0.2-0.2-0.4-0.5-0.5c-0.3-0.1-0.6,0.2-0.7,0.4l-0.5,3.1c0,0.1-0.1,0.2,0,0.4
			c0.1,0.2,0.2,0.3,0.4,0.4c0,0,0,0,0,0c0,0,0,0,0.1,0c0,0,0,0,0,0c0,0,0,0,0,0c0,0,0,0,0,0c0.1,0,0.2,0,0.2-0.1
			c0.3-0.1,0.6-0.2,0.9-0.4c0,0,0,0,0,0c1.2-0.6,1.8-1.6,1.8-2.8C52.3,169.5,52.1,169.2,51.8,169.2"/>
		<path clip-path="url(#SVGID_4_)" fill="#3E6E8E" d="M57.8,156.6l2.1-2.5c0,0,0,0,0,0c0,0,0-0.1,0.1-0.1c0,0,0,0,0,0c0,0,0,0,0-0.1
			c0,0,0,0,0,0c0,0,0,0,0,0c0,0,0,0,0,0c0,0,0,0,0-0.1c0,0,0,0,0,0c0,0,0,0,0-0.1c0,0,0,0,0,0c0,0,0-0.1,0-0.1c0,0,0,0,0,0
			c0,0,0-0.1,0-0.1c0,0,0,0,0,0c0,0-0.1-0.1-0.1-0.1c-0.1-0.1-0.2-0.1-0.3-0.1c-1.8-0.4-3.3,0.2-4.1,1.5c-0.2,0.3-0.1,0.6,0.2,0.8
			c0.1,0,0.1,0.1,0.2,0.1c-0.1,0.2,0,0.4,0.1,0.6c0.1,0.1,0.3,0.2,0.4,0.2c0.1,0,0.3-0.1,0.4-0.2l0.1-0.1c-0.1,0.2,0,0.5,0.2,0.6
			c0.1,0.1,0.2,0.1,0.4,0.1C57.5,156.8,57.6,156.7,57.8,156.6"/>
		<path clip-path="url(#SVGID_4_)" fill="#3E6E8E" d="M62.1,157.5c-1.2-0.7-2.4-0.7-3.5-0.1c-0.3,0.2-0.4,0.5-0.2,0.8
			c0,0.1,0.1,0.1,0.1,0.2c-0.2,0.1-0.2,0.3-0.2,0.6c0.1,0.2,0.3,0.4,0.6,0.4c0,0,0.1,0,0.1,0l0.1,0c-0.2,0.1-0.3,0.4-0.2,0.6
			c0.1,0.2,0.3,0.4,0.5,0.4c0.1,0,0.1,0,0.2,0l3.1-1.1c0.1,0,0.2-0.1,0.2-0.1c0,0,0,0,0,0c0,0,0,0,0,0c0,0,0,0,0,0c0,0,0,0,0,0
			c0,0,0,0,0,0c0,0,0,0,0-0.1c0,0,0,0,0,0c0-0.1,0-0.2,0-0.4c0-0.1-0.1-0.2-0.2-0.3C62.7,157.9,62.4,157.7,62.1,157.5
			C62.2,157.6,62.1,157.5,62.1,157.5"/>
		<path clip-path="url(#SVGID_4_)" fill="#3E6E8E" d="M63.4,164.3c0-0.1,0-0.3-0.1-0.4c-0.1-0.3-0.2-0.5-0.3-0.7
			c0-0.1-0.1-0.1-0.1-0.2c-0.7-1.1-1.7-1.8-2.9-1.8c-0.3,0-0.6,0.2-0.6,0.5c0,0.1,0,0.1,0,0.2c-0.2,0-0.4,0.2-0.4,0.4
			c-0.1,0.3,0.1,0.6,0.4,0.7l0.1,0c-0.2,0-0.4,0.2-0.5,0.4c-0.1,0.3,0.2,0.6,0.5,0.6l3.2,0.5c0.1,0,0.1,0,0.2,0c0,0,0.1,0,0.1,0
			c0,0,0,0,0,0c0,0,0,0,0.1,0c0.1,0,0.2-0.1,0.2-0.1c0,0,0,0,0,0c0,0,0,0,0,0C63.3,164.5,63.4,164.4,63.4,164.3"/>
		<path clip-path="url(#SVGID_4_)" fill="#3E6E8E" d="M60.8,168.3c0-1.3-0.6-2.3-1.6-2.9c-0.3-0.2-0.6-0.1-0.8,0.2
			c0,0.1-0.1,0.1-0.1,0.2c-0.2-0.1-0.4,0-0.6,0.1c-0.2,0.2-0.2,0.6,0,0.8l0.1,0.1c-0.2-0.1-0.5,0-0.7,0.2c-0.2,0.2-0.2,0.6,0.1,0.8
			l2.5,2c0.1,0.1,0.2,0.2,0.3,0.2c0,0,0.1,0,0.1,0c0.1,0,0.2,0,0.2-0.1c0,0,0,0,0,0c0,0,0.1,0,0.1,0c0,0,0.1-0.1,0.1-0.1
			c0.1-0.1,0.1-0.2,0.1-0.3c0.1-0.3,0.1-0.5,0.1-0.8C60.8,168.4,60.8,168.3,60.8,168.3"/>
		<path clip-path="url(#SVGID_4_)" fill="#3E6E8E" d="M56.3,171.8c0.7-1.1,0.7-2.3,0.1-3.3c-0.2-0.3-0.5-0.4-0.8-0.2
			c-0.1,0-0.1,0.1-0.2,0.1c-0.1-0.2-0.3-0.2-0.6-0.2c-0.3,0.1-0.5,0.4-0.4,0.7l0,0.1c-0.1-0.2-0.4-0.3-0.6-0.2
			c-0.3,0.1-0.4,0.4-0.3,0.7l1.1,2.9c0,0.1,0.1,0.2,0.2,0.3c0.1,0.1,0.2,0.1,0.4,0.1c0,0,0.1,0,0.1,0c0,0,0,0,0.1,0
			c0.1,0,0.2-0.1,0.3-0.2c0.2-0.2,0.4-0.4,0.5-0.6C56.2,171.9,56.2,171.8,56.3,171.8"/>
		<path clip-path="url(#SVGID_4_)" fill="#3E6E8E" d="M49.1,154.8L49.1,154.8c0.1,0.1,0.3,0.1,0.4,0.1c0.1,0,0.1,0,0.2,0
			c0.3-0.1,0.4-0.4,0.3-0.7l-1.2-3c0,0,0,0,0,0c0,0,0-0.1,0-0.1c0,0,0,0,0,0c0,0,0,0-0.1-0.1c0,0,0,0,0,0c0,0,0,0,0,0c0,0,0,0,0,0h0
			c-0.2-0.2-0.6-0.1-0.8,0.1c-1.3,1.4-1.6,2.9-0.8,4.2c0.1,0.2,0.3,0.3,0.5,0.3c0.1,0,0.2,0,0.3-0.1c0.1,0,0.1-0.1,0.2-0.1
			c0.1,0.1,0.3,0.2,0.4,0.2c0,0,0.1,0,0.1,0C49,155.4,49.2,155.1,49.1,154.8"/>
		<path clip-path="url(#SVGID_4_)" fill="#3E6E8E" d="M53.6,154.8C53.6,154.9,53.6,154.9,53.6,154.8c0.4,0,0.6-0.2,0.7-0.4l0.6-3.2
			c0,0,0,0,0,0c0,0,0,0,0-0.1c0,0,0,0,0-0.1c0,0,0,0,0-0.1c0,0,0,0,0-0.1c0,0,0,0,0,0c0,0,0,0,0,0c0,0,0,0,0-0.1c0,0,0,0,0,0
			c0,0,0,0,0,0c0,0,0,0,0,0c0,0,0,0,0,0c0,0,0,0,0,0c0,0,0,0,0,0c0,0,0,0-0.1,0c0,0,0,0,0,0c0,0,0,0-0.1,0c0,0,0,0,0,0c0,0,0,0,0,0
			c0,0,0,0-0.1,0c0,0,0,0,0,0c0,0,0,0-0.1,0c0,0,0,0-0.1,0c0,0,0,0,0,0c-1.8,0.6-2.9,1.8-2.9,3.3c0,0.3,0.3,0.5,0.6,0.5
			c0.1,0,0.2,0,0.2,0c0,0.2,0.2,0.4,0.4,0.4c0.1,0,0.1,0,0.2,0c0.2,0,0.5-0.2,0.5-0.4l0-0.1C53.2,154.6,53.3,154.8,53.6,154.8"/>
		<path clip-path="url(#SVGID_4_)" fill="#3E6E8E" d="M51.8,168.4c-3.7,0-6.8-2.9-6.8-6.6c0-3.6,3-6.6,6.8-6.6
			c3.7,0,6.8,2.9,6.8,6.6C58.6,165.5,55.5,168.4,51.8,168.4 M51.8,153.9c-4.5,0-8.2,3.6-8.2,8c0,4.4,3.7,7.9,8.2,7.9
			c4.5,0,8.2-3.6,8.2-7.9C60,157.5,56.3,153.9,51.8,153.9"/>
		<path clip-path="url(#SVGID_4_)" fill="#3E6E8E" d="M51.8,165.5c-2.1,0-3.8-1.6-3.8-3.7s1.7-3.7,3.8-3.7c2.1,0,3.8,1.6,3.8,3.7
			S53.9,165.5,51.8,165.5 M51.8,155.7c-3.5,0-6.4,2.8-6.4,6.2c0,3.4,2.9,6.2,6.4,6.2c3.5,0,6.4-2.8,6.4-6.2
			C58.1,158.4,55.3,155.7,51.8,155.7"/>
		<path clip-path="url(#SVGID_4_)" fill="#3E6E8E" d="M254.2,134.2c-60.3-0.8-98.2,15-129,52h9.3C134.5,186.2,178,140.3,254.2,134.2
			"/>
	</g>
</g>
<path fill="none" stroke="#000000" stroke-width="0.46" d="M436.5,144.3c0.1,1,1,1.7,2,1.6c1-0.1,1.7-1,1.6-2c-0.1-1-1-1.7-2-1.6
	C437.1,142.4,436.3,143.3,436.5,144.3z M436.2,141.2l-1,3.9 M432.4,142.3l2.8,2.8l3.2-0.9l-2.3-2.3L432.4,142.3z"/>
<path d="M437.8,144.2c0,0.3,0.3,0.5,0.5,0.4c0.3,0,0.5-0.3,0.4-0.5c0-0.3-0.3-0.5-0.5-0.4C438,143.7,437.8,143.9,437.8,144.2"/>
<circle fill="none" stroke="#000000" stroke-width="0.46" cx="431.5" cy="144.9" r="1.8"/>
<path d="M431,144.9c0,0.3,0.3,0.5,0.5,0.4c0.3,0,0.5-0.3,0.4-0.5c0-0.3-0.3-0.5-0.5-0.4C431.2,144.4,431,144.7,431,144.9"/>
<line fill="none" stroke="#000000" stroke-width="0.46" x1="431.4" y1="144.9" x2="432.9" y2="140.9"/>
<path d="M435.2,141.2c0,0,1.5,0.2,1.6,0.1c0.2-0.1,0.3-0.8-0.1-0.8c-0.2,0-1.7,0-1.8,0.4C434.9,141.1,435,141.2,435.2,141.2"/>
<path d="M433.6,139.9c-0.6,0-2.1,0.2-1.7,0.5c0.4,0.3,0.9,0.6,0.9,0.6s0.2,0.1,0.2,0c0.1-0.3-0.2-0.4-0.4-0.5
	c-0.1-0.1,0.7-0.3,0.9-0.3C433.7,140.1,433.8,139.9,433.6,139.9"/>
<path fill="#2A2522" d="M435.2,146.1c-0.1,0.2-0.3,0.1-0.6,0c-0.2-0.1-0.3-0.1-0.4-0.1c-0.2-0.1-0.1-0.4,0-0.4
	C434.5,145.5,435.3,145.7,435.2,146.1"/>
<line fill="none" stroke="#000000" stroke-width="0.46" x1="434.6" y1="145.8" x2="435.2" y2="145.1"/>
<path fill="#FFFFFF" d="M149.6,67.2c-3.5,0-6.2,2.8-6.2,6.3c0,0.2,0,0.4,0,0.6c-0.8-0.5-1.7-0.8-2.7-0.8c-2.7,0-4.9,2.2-4.9,4.9
	c0,2.5,1.9,4.6,4.3,4.8v0l17.9,0l0,0c0.1,0,0.3,0,0.4,0c2.7,0,4.9-2.2,4.9-4.9c0-2.7-2.2-4.9-4.9-4.9c-1,0-1.9,0.3-2.7,0.8
	c0-0.2,0-0.4,0-0.6C155.8,70,153,67.2,149.6,67.2"/>
<path fill="#FFFFFF" d="M618.5,38.4c-5,0-9.1,4.1-9.1,9.2c0,0.3,0,0.6,0,0.9c-1.1-0.7-2.5-1.2-3.9-1.2c-3.9,0-7.1,3.2-7.1,7.1
	c0,3.7,2.8,6.7,6.4,7.1v0l26.2,0l0,0c0.2,0,0.4,0,0.6,0c3.9,0,7.1-3.2,7.1-7.1c0-3.9-3.2-7.1-7.1-7.1c-1.4,0-2.8,0.4-3.9,1.2
	c0-0.3,0-0.6,0-0.9C627.7,42.5,623.6,38.4,618.5,38.4"/>
<path fill="#FFFFFF" d="M309.6,30.5c-5,0-9.1,4.1-9.1,9.2c0,0.3,0,0.6,0,0.9c-1.1-0.7-2.5-1.2-3.9-1.2c-3.9,0-7.1,3.2-7.1,7.1
	c0,3.7,2.8,6.7,6.4,7.1v0l26.2,0l0,0c0.2,0,0.4,0,0.6,0c3.9,0,7.1-3.2,7.1-7.1c0-3.9-3.2-7.1-7.1-7.1c-1.4,0-2.8,0.4-3.9,1.2
	c0-0.3,0-0.6,0-0.9C318.8,34.6,314.7,30.5,309.6,30.5"/>
<path fill="#FFFFFF" d="M292.9,39.6c-2.2,0-3.9,1.8-3.9,4.1c0,0.1,0,0.3,0,0.4c-0.5-0.3-1.1-0.5-1.7-0.5c-1.7,0-3.1,1.4-3,3.2
	c0,1.6,1.2,3,2.8,3.2v0l11.4,0.1l0,0c0.1,0,0.2,0,0.3,0c1.7,0,3.1-1.4,3-3.2c0-1.8-1.4-3.2-3.1-3.2c-0.6,0-1.2,0.2-1.7,0.5
	c0-0.1,0-0.3,0-0.4C296.9,41.4,295.1,39.6,292.9,39.6"/>
<g>
	<g>
		<defs>
			<rect id="SVGID_5_" x="451.8" y="69" width="62.1" height="78.2"/>
		</defs>
		<clipPath id="SVGID_6_">
			<use xlink:href="#SVGID_5_"  overflow="visible"/>
		</clipPath>
		<path clip-path="url(#SVGID_6_)" fill="#DFDDDD" d="M473.1,77.5c-0.6,1.5,0.2,3.3,1.7,4c1.5,0.6,3.2-0.1,3.8-1.6
			c0.6-1.5-0.2-3.3-1.7-4C475.4,75.2,473.7,75.9,473.1,77.5"/>
		<path clip-path="url(#SVGID_6_)" fill="#F1F0E2" d="M469.1,80.8c-0.5,1.5,0.2,3.2,1.6,3.8c1.4,0.6,3-0.1,3.6-1.5
			c0.5-1.5-0.2-3.2-1.6-3.8C471.2,78.6,469.7,79.3,469.1,80.8"/>
		<path clip-path="url(#SVGID_6_)" fill="#C3BFBF" d="M474.1,83c-0.8,2.1,0.3,4.6,2.4,5.5c2.1,0.9,4.4-0.1,5.2-2.2
			c0.8-2.1-0.3-4.6-2.4-5.5C477.2,79.9,474.8,80.9,474.1,83"/>
		<path clip-path="url(#SVGID_6_)" fill="#DFDDDD" d="M468,84.9c-0.8,2.1,0.3,4.6,2.4,5.5c2.1,0.9,4.4-0.1,5.2-2.3
			c0.8-2.1-0.3-4.6-2.4-5.5C471.1,81.7,468.8,82.7,468,84.9"/>
		<path clip-path="url(#SVGID_6_)" fill="#F1F0E2" d="M474.8,87.2c-1.3,3.6,0.5,7.8,4,9.3c3.5,1.5,7.5-0.2,8.8-3.8
			c1.3-3.6-0.5-7.8-4-9.3C480.1,81.9,476.1,83.6,474.8,87.2"/>
		<path clip-path="url(#SVGID_6_)" fill="#C3BFBF" d="M468.7,92.5c-1.1,3,0.4,6.5,3.3,7.7c2.9,1.3,6.2-0.2,7.3-3.2
			c1.1-3-0.4-6.5-3.3-7.7C473.1,88.1,469.8,89.5,468.7,92.5"/>
		<path clip-path="url(#SVGID_6_)" fill="#DFDDDD" d="M475.5,97.8c-1,2.6,0.3,5.7,2.9,6.8c2.6,1.1,5.4-0.1,6.4-2.8
			c1-2.6-0.3-5.7-2.9-6.8C479.4,93.9,476.5,95.2,475.5,97.8"/>
		<path clip-path="url(#SVGID_6_)" fill="#C3BFBF" d="M511.3,129.9c-6.7-12.4-22.4-25.7-22.9-26.1c-0.8-0.7-3,1.4-5.5,2.3l8.6,5.6
			l-2.9,4.7l5.5,8.8l-9.7-11.8l3.6-2.8l-6.8-4.1c-2.4,0.3-4.8-0.4-5.4,0.6c-0.5,0.4-7.3,19.5-6.9,33.5c0.1,4.9,21.2,0,22.9-0.4l0,0
			c0,0,0,0,0.1,0c0,0,0.1,0,0.1,0l0,0C493.6,139.7,513.7,134.2,511.3,129.9"/>
	</g>
</g>
<path fill="#CCDD9C" d="M134.5,186.2c0,0,69.3-73,186.1-47.1c116.8,25.9,181.9-10,220.2-18.5c104.6-23.3,159.1-6.7,200.6,65.6H134.5
	z"/>
</svg>
